<?xml version="1.0" encoding="utf-8"?>
<!-- Generator: Adobe Illustrator 16.0.0, SVG Export Plug-In . SVG Version: 6.00 Build 0)  -->
<!DOCTYPE svg PUBLIC "-//W3C//DTD SVG 1.1//EN" "http://www.w3.org/Graphics/SVG/1.1/DTD/svg11.dtd">
<svg version="1.1" id="Layer_1" xmlns="http://www.w3.org/2000/svg" xmlns:xlink="http://www.w3.org/1999/xlink" x="0px" y="0px"
	 width="1815.788px" height="1100.877px" viewBox="0 0 1815.788 1100.877" enable-background="new 0 0 1815.788 1100.877"
	 xml:space="preserve">
<g>
	<path fill-rule="evenodd" clip-rule="evenodd" d="M1163.526,240.458c5.676-3.886,11.004-7.911,16.695-11.331
		c6.717-4.035,14.123-6.5,21.768-8.305c5.943-1.402,11.91-2.862,17.658-4.879c7.652-2.686,15.555-3.711,23.51-4.498
		c5.898-0.583,11.842-1.069,17.758-0.982c5.219,0.076,10.432,0.933,15.631,1.58c5.135,0.639,10.258,1.402,15.375,2.194
		c4.17,0.646,8.359,1.236,12.471,2.166c10.828,2.45,21.645,4.957,32.414,7.655c13.268,3.324,25.988,8.111,37.936,14.854
		c9.965,5.625,19.936,11.249,29.943,16.8c0.867,0.481,2.039,0.415,3.068,0.611c0.438,0.083,0.947,0.071,1.291,0.3
		c6.869,4.561,13.795,9.04,20.52,13.805c1.85,1.312,3.082,3.495,4.717,5.421c4.637-3.294,8.652-6.21,12.732-9.038
		c11.246-7.79,23.152-14.405,35.342-20.625c13.572-6.929,27.641-12.438,42.32-16.348c17.473-4.652,35.217-7.507,53.391-6.592
		c3.943,0.199,7.877,0.646,11.789,1.127c-5.555,0-11.107-0.075-16.658,0.015c-12.965,0.208-25.82,1.508-38.385,4.777
		c-9.004,2.343-18.023,4.757-26.807,7.807c-13.906,4.828-27.146,11.214-39.691,18.954c-7.342,4.53-14.617,9.167-21.846,13.875
		c-2.914,1.898-5.59,4.159-8.432,6.173c-1.357,0.961-1.236,1.74-0.299,2.993c6.883,9.218,14.102,18.221,20.418,27.815
		c7.395,11.236,14.018,22.982,20.918,34.542c6.104,10.234,10.955,21.062,14.297,32.488c2.742,9.381,5.453,18.814,7.326,28.39
		c1.859,9.496,2.293,19.265,4.012,28.793c1.977,10.973,0.521,21.896,0.258,32.813c-0.143,5.849-1.842,11.671-2.975,17.479
		c-0.592,3.029-1.164,6.136-2.32,8.972c-2.322,5.71-5.041,11.257-7.598,16.87c-0.037,0.086-0.049,0.225-0.113,0.254
		c-5.045,2.394-4.488,8.087-7.045,11.942c-4.824,7.272-9.465,14.677-14.527,21.778c-5.297,7.434-10.699,14.834-16.617,21.766
		c-4.623,5.415-9.861,10.374-15.264,15.029c-7.787,6.713-15.783,13.215-24.027,19.349c-11.049,8.216-22.641,15.724-35.795,20.132
		c-17.969,6.022-36.08,11.62-55.053,13.727c-5.16,0.575-10.283,1.682-15.451,1.919c-3.125,0.146-6.314-0.86-9.457-1.451
		c-1.359-0.26-2.674-0.777-4.357-1.28c0.25,0.903,0.406,1.466,0.602,2.17c-0.289-0.031-0.559,0.009-0.752-0.092
		c-1.967-1.03-3.818-1.83-5.797,0.182c-0.631,0.641-1.898,0.715-2.9,0.92c-4.289,0.877-7.986,2.926-11.717,5.176
		c-4.346,2.617-9.17,4.429-13.672,6.808c-6.436,3.4-13.439,4.106-20.457,4.208c-8.738,0.127-16.809-2.497-24.256-7.172
		c-4.072-2.553-8.354-4.782-12.625-6.992c-1.02-0.529-2.453-0.732-3.58-0.507c-7.393,1.478-14.783,2.998-22.117,4.742
		c-4.148,0.987-8.232,2.304-12.256,3.731c-1.248,0.444-2.205,1.728-3.279,2.643c-8.689,7.404-18.742,12.375-29.297,16.467
		c-9.039,3.504-18.539,3.768-28.041,4.37c-11.666,0.741-23.25,0.83-34.508-2.745c-4.188-1.33-8.242-3.177-12.205-5.1
		c-7.5-3.641-14.891-7.506-22.418-11.322c-0.262,1.704-1.635,2.385-3.805,1.879c-0.514-0.119-1.6,0.267-1.686,0.604
		c-0.617,2.473-2.08,1.632-3.693,1.266c-2.93-0.659-5.916-1.049-9.018-0.992c1.322,0.403,2.645,0.808,3.967,1.214
		c-0.029,0.139-0.057,0.279-0.084,0.419c-4.281-0.238-8.561-0.478-13.088-0.731c-0.676,15.021-1.346,29.864-2.037,45.23
		c1.104-0.597,1.678-0.91,2.287-1.241c0.215,0.307,0.553,0.63,0.496,0.74c-2.77,5.13-1.43,10.917-2.621,16.294
		c-1.098,4.947-1.275,10.295-3.35,14.776c-2.152,4.654-5.422,9.344-10.453,11.497c-5.77,2.468-11.758,4.784-17.881,5.959
		c-5.828,1.117-12.182,1.546-17.65-1.604c-2.756-1.589-5.014-4.298-7.027-6.87c-5.67-7.236-9.729-15.235-10.334-24.642
		c-0.014-0.202-0.332-0.388-0.74-0.837c-0.836,2.245-1.42,4.375-2.387,6.313c-2.76,5.516-5.307,11.19-8.639,16.35
		c-2.979,4.612-7.559,7.285-13.18,8.506c-7.362,1.601-14.645,2.629-22.189,1.815c-9.376-1.011-16.174-5.423-20.374-13.981
		c-5.019-10.233-7.849-20.874-5.818-32.252c0.923-5.176,2.886-10.163,4.437-15.439c-2.104-1.084-4.729-2.52-7.424-3.81
		c-7.64-3.66-13.003-9.224-14.816-17.709c-0.324-1.517-0.906-1.581-2.311-1.521c-3.893,0.165-7.93,0.597-11.664-0.211
		c-3.279-0.71-6.438-1.689-9.629-0.576c-3.705,1.294-7.051,0.086-10.621-0.435c-3.54-0.516-7.302-0.265-10.865,0.295
		c-5.562,0.875-10.994,2.924-16.561,3.304c-5.469,0.376-11.177-0.097-16.528-1.312c-6.853-1.553-13.474-4.163-20.149-6.447
		c-1.476-0.507-2.765-1.56-4.34-2.478c-1.312,2.534-3.312,0.908-5.192,0.874c-5.855-0.105-11.726-0.192-17.567,0.127
		c-3.515,0.193-6.966,1.325-10.482,1.719c-2.28,0.256-4.709,1.69-6.897-0.923c-0.999-1.192-2.188-0.056-2.944,1.329
		c-3.6,6.608-6.921,13.418-11.11,19.637c-5.465,8.116-11.164,16.18-17.651,23.476c-9.145,10.284-18.799,20.169-28.823,29.601
		c-6.479,6.094-13.98,11.113-21.09,16.527c-2.607,1.986-6.18,3.182-7.934,5.697c-2.399,3.442-5.991,3.257-9.044,4.623
		c-0.79,0.351-2.062-0.368-3.11-0.604c-0.656-0.146-1.436-0.62-1.945-0.412c-7.993,3.229-16.33,4.196-24.886,4.348
		c-8.479,0.15-16.95,1.137-25.42,1.097c-10.852-0.051-21.628-1.512-32.016-4.71c-6.076-1.872-12.067-4.273-17.734-7.155
		c-7.271-3.692-14.553-7.587-21.143-12.349c-7.064-5.102-13.574-11.058-19.848-17.134c-3.538-3.423-6.013-7.923-9.15-11.789
		c-3.325-4.1-7.173-7.802-10.254-12.066c-7.051-9.759-13.746-19.776-20.64-29.653c-5.3-7.595-8.737-16.148-12.792-24.387
		c-0.569-1.153-1.476-2.139-2.196-3.163c-3.508,1.449-4.49,1.116-6.919-1.978c-0.55-0.701-1.264-1.434-2.063-1.754
		c-2.873-1.154-2.9-1.092-3.293-4c-6.059-1.323-12.165-2.385-18.102-4.047c-4.462-1.249-8.925-2.863-13.01-5.027
		c-14.424-7.642-28.789-15.405-42.942-23.532c-4.191-2.405-7.741-6.014-11.354-9.321c-6.819-6.24-13.838-12.325-20.09-19.105
		c-6.161-6.682-11.549-14.087-17.13-21.286c-2.997-3.865-5.907-7.838-8.462-12.002c-3.196-5.211-6.359-10.501-8.857-16.062
		c-2.72-6.054-5.059-12.35-6.841-18.737c-2.095-7.512-3.517-15.219-5.044-22.878c-3.083-15.457-3.677-31.12-3.475-46.822
		c0.182-14.116,2.297-27.989,4.884-41.869c0.928-4.976,1.536-10.091,3.081-14.882c2.178-6.75,4.992-13.311,7.794-19.841
		c2.629-6.125,5.469-12.17,8.448-18.133c3.827-7.661,7.828-15.238,11.868-22.79c2.925-5.47,5.807-10.984,9.121-16.217
		c4.413-6.974,9.112-13.775,13.901-20.498c3.997-5.61,8.266-11.028,12.493-16.471c1.21-1.558,1.184-2.648-0.573-3.644
		c-7.599-4.309-15.005-9.012-22.843-12.827c-5.602-2.726-11.664-4.762-17.736-6.19c-5.083-1.198-10.479-1.072-15.737-1.526
		c-1.051-0.092-2.104-0.165-3.119-0.648c10.404-1.979,20.431,0.076,30.372,3.065c0.091-0.238,0.183-0.476,0.273-0.714
		c-2.093-1-4.184-2.008-6.282-3c-2.167-1.024-4.341-2.033-6.419-3.229c16.371,5.843,31.378,14.343,45.953,23.984
		c4.112-4.776,7.953-9.38,11.951-13.845c6.391-7.136,12.923-14.146,19.302-21.291c1.266-1.418,1.992-3.306,3.179-4.811
		c2.663-3.37,5.109-7.03,8.288-9.843c4.052-3.585,8.897-6.259,13.121-9.67c7.989-6.451,17.391-10.435,26.308-15.198
		c6.403-3.417,13.497-5.54,20.271-8.264c5.112-2.055,10.137-4.351,15.327-6.183c9.647-3.406,19.433-6.159,29.642-7.672
		c17.431-2.583,34.892-3.77,52.488-3.25c7.083,0.209,14.22-0.092,21.235,0.697c7.061,0.794,14.041,2.492,20.991,4.087
		c8.125,1.864,16.217,3.902,24.249,6.139c6.419,1.789,12.738,3.955,19.082,6.012c6.259,2.031,12.66,3.743,18.688,6.324
		c5.473,2.344,10.689,5.414,15.733,8.613c9.917,6.291,19.002,13.649,26.664,22.625c2.447,2.864,4.72,5.881,6.962,8.911
		c1.268,1.715,2.309,1.927,3.751,0.196c7.507-9.006,16.091-16.932,25.117-24.356c10.594-8.715,21.13-17.533,32.167-25.664
		c7.692-5.667,16.117-10.36,24.33-15.294c12.654-7.604,25.209-15.411,38.185-22.431c10.232-5.536,21.067-9.954,31.574-14.991
		c5.814-2.787,11.307-6.353,17.296-8.645c11.67-4.463,23.58-8.424,36.051-9.958c8.689-1.069,17.464-1.455,26.205-2.088
		c8.566-0.62,17.139-1.215,25.713-1.738c13.779-0.841,27.572-1.463,41.332,0.223c6.365,0.78,12.74,1.608,19.02,2.87
		c10.301,2.067,20.668,4.012,30.732,6.952c7.348,2.146,14.135,6.144,21.387,8.711c9.09,3.216,16.264,9.307,23.924,14.72
		c5.455,3.854,11.027,7.549,16.383,11.539c6.566,4.893,13.297,9.643,19.348,15.128c9.627,8.725,19.344,17.482,27.918,27.201
		c8.279,9.384,15.963,19.517,22.414,30.224c5.578,9.263,9.059,19.791,13.469,29.76
		C1163.319,240.033,1163.517,240.44,1163.526,240.458z M990.548,259.388c0.594-3,1.09-5.725,1.682-8.431
		c1.373-6.269,4.199-11.941,8.123-16.901c4.604-5.82,14.223-7.438,22.449-4.078c9.225,3.767,16.195,10.211,20.814,18.998
		c2.268,4.311,4.652,8.772,5.713,13.455c1.803,7.947,2.717,16.107,3.789,24.204c1.809,13.661,0.596,27.354-0.049,41.015
		c-0.309,6.57-1.539,13.101-2.432,19.638c-1.098,8.013-2.33,16.006-3.398,24.023c-0.371,2.789-0.547,5.617-0.59,8.43
		c-0.025,1.675,0.375,3.357,0.617,5.316c0.668,1.323,1.426,3.093,2.445,4.701c0.34,0.541,1.389,1.018,2.027,0.925
		c3.984-0.59,8.055-0.986,11.893-2.13c6.908-2.059,13.584-4.917,20.521-6.854c7.711-2.153,15.557-3.911,23.432-5.37
		c11.293-2.095,22.744-3.299,34.064-0.538c8.648,2.108,17.137,4.909,24.695,9.916c2.895,1.917,5.949,3.591,9.303,5.6
		c0.5-1.972,1.207-3.652,1.318-5.372c0.611-9.601,1.584-19.216,1.484-28.815c-0.141-13.508-0.43-27.082-1.92-40.487
		c-1.6-14.404-4.285-28.725-7.225-42.931c-2.084-10.06-5.078-19.965-8.236-29.754c-2.271-7.042-5.096-13.977-8.389-20.602
		c-3.424-6.884-5.141-15.029-12.609-19.345c-0.422-0.244-0.607-0.94-0.85-1.449c-3.938-8.363-9.99-15.317-15.984-22.086
		c-10.811-12.206-22.74-23.355-35.908-33.078c-6.668-4.921-13.143-10.148-20.09-14.641c-7.809-5.05-15.877-9.774-24.164-13.99
		c-6.439-3.274-13.352-5.639-20.117-8.245c-8.34-3.211-16.641-6.59-25.164-9.24c-4.992-1.554-10.396-1.747-15.59-2.695
		c-13.432-2.45-26.967-3.778-40.609-3.17c-17.549,0.781-35.084,1.806-52.613,2.9c-5.816,0.363-11.68,0.875-17.381,2.018
		c-6.629,1.331-13.252,3.029-19.588,5.354c-3.479,1.275-8.448,0.309-10.132,5.272c-0.093,0.273-0.829,0.353-1.278,0.473
		c-1,0.267-2.062,0.375-3.003,0.769c-10.904,4.586-22.009,8.769-32.621,13.957c-10.303,5.036-20.16,11.01-30.1,16.763
		c-12.045,6.969-23.977,14.134-35.951,21.225c-17.716,10.491-32.882,24.287-48.339,37.663c-6.539,5.658-12.26,12.256-18.459,18.321
		c-1.228,1.203-2.027,2.117-0.933,3.769c0.174,0.265-0.089,0.82-0.186,1.491c-0.842-0.467-1.463-0.811-2.305-1.277
		c-8.65,12.105-17.119,24.172-21.153,38.672c-1.262,4.535-2.27,9.146-3.262,13.75c-0.162,0.754,0.099,2.109,0.616,2.412
		c2.281,1.331,4.728,2.373,7.111,3.531c2.792,1.357,5.685,2.548,8.35,4.122c11.273,6.659,21.445,14.827,30.702,24.01
		c9.68,9.602,17.394,20.787,23.675,32.893c7.909,15.243,14.022,31.049,13.604,48.61c-0.07,2.934-0.941,5.865-1.604,8.761
		c-0.382,1.668-1.09,3.265-1.848,5.464c1.004-0.526,1.404-0.709,1.779-0.935c6.332-3.797,12.316-8.033,19.488-10.509
		c8.271-2.855,16.684-4.804,25.275-5.432c9.752-0.712,19.613-0.901,29.365-0.303c7.547,0.463,15.017,2.396,22.489,3.844
		c9.462,1.834,18.757,4.476,26.833,9.83c8.174,5.419,15.855,11.582,23.961,17.572c0.143-0.705,0.488-1.648,0.494-2.593
		c0.045-7.409,2.223-14.039,6.776-19.94c2.156-2.793,5.026-4.116,8.261-4.98c6.465-1.728,12.021,1.142,17.668,3.509
		c1.314,0.552,2.55,1.299,4.154,2.129c-0.221-2.711-0.756-4.89-0.504-6.975c1.08-8.962,2.049-17.962,3.701-26.829
		c2.104-11.293,4.773-22.483,7.291-33.697c3.092-13.777,6.486-27.491,9.346-41.317c1.879-9.086,2.412-18.317,0.115-27.496
		c-0.25-0.992-0.416-2.097-0.248-3.086c1.779-10.539,6.379-19.62,13.957-27.229c4.902-4.921,10.484-6.335,17.082-4.212
		c8.754,2.816,15.904,7.818,20.555,15.798C985.595,248.38,987.774,253.678,990.548,259.388z M409.605,631.905
		c0.371,0.87,0.762,1.819,1.178,2.759c2.512,5.685,4.534,11.654,7.653,16.984c6.178,10.553,12.989,20.735,19.491,31.104
		c6.708,10.696,17.041,18.352,24.007,28.903c2.902,4.397,7.224,7.963,11.27,11.479c11.304,9.829,23.804,17.897,37.952,22.925
		c7.837,2.785,16.016,4.736,24.166,6.482c8.998,1.925,18.207,1.973,27.376,1.394c8.005-0.507,16.044-0.895,23.978-1.985
		c6.513-0.894,12.89-2.766,19.337-4.154c1.551-0.336,3.416-0.032,4.669-0.791c6.669-4.041,13.656-7.753,19.672-12.639
		c16.067-13.049,30.946-27.421,44.11-43.443c10.827-13.175,19.456-27.772,26.683-43.192c0.82-1.751,0.923-3.827,1.47-5.722
		c0.161-0.558,0.671-1.03,1.077-1.494c0.552-0.627,1.411-1.109,1.699-1.828c1.409-3.53,3.635-6.701,3.476-10.864
		c-0.36-9.421-0.173-18.864-0.563-28.284c-0.237-5.722-1.126-11.418-1.743-17.123c-0.514-4.756-0.644-9.601-1.684-14.238
		c-1.536-6.855-3.377-13.688-5.732-20.301c-2.639-7.414-6.031-14.558-9.016-21.854c-0.804-1.965-1.325-4.046-2.085-6.419
		c-0.237-0.132-1.482-0.406-1.971-1.168c-1.869-2.917-3.707-5.89-5.165-9.025c-2.958-6.358-5.662-12.837-8.523-19.388
		c-4.28,3.313-8.522,6.802-12.984,9.984c-3.506,2.5-7.051,5.184-10.987,6.805c-10.783,4.442-22.146,7.075-33.807,7.011
		c-9.771-0.054-19.558-1.111-29.294-2.139c-9.058-0.956-17.375-4.486-24.785-9.607c-11.604-8.017-20.957-18.325-28.581-30.204
		c-1.797-2.802-1.771-3.374,1.279-5.72c0.723,0.917,1.537,1.788,2.161,2.776c1.05,1.665,1.828,3.517,2.981,5.098
		c6.303,8.647,13.045,16.984,21.912,23.1c4.957,3.423,10.418,6.314,16.009,8.554c4.379,1.757,9.265,2.504,14,3.055
		c7.479,0.872,15.032,1.77,22.53,1.597c7.014-0.161,14.037-1.47,20.982-2.692c7.782-1.374,15.042-4.257,21.341-9.182
		c2.703-2.113,5.135-4.607,7.965-6.52c6.143-4.155,11.801-8.926,15.959-14.989c7.562-11.021,14.996-22.179,21.729-33.72
		c7.735-13.26,15.82-26.389,20.646-41.177c2.592-7.948,4.204-16.046,2.331-24.118c-1.855-8.003-4.84-15.789-7.819-23.48
		c-5.331-13.769-13.673-25.767-23.348-36.771c-8.898-10.121-19.706-18.095-30.923-25.459c-3.08-2.022-6.556-3.439-9.783-5.099
		c-0.859,1.262-1.416,2.078-2.107,3.093c-0.501-0.622-1.103-1.02-1.138-1.464c-0.232-2.912-2.096-3.944-4.646-4.467
		c-6.083-1.247-12.098-2.915-18.227-3.833c-12.51-1.873-25.003-1.901-37.404,1.258c-6.127,1.56-12.188,3.173-17.595,6.582
		c-0.521,0.328-1.189,1-1.185,1.506c0.077,8.384-4.148,15.167-8.17,22.004c-0.381,0.65-1.603,0.805-2.434,1.191
		c-0.101-0.869-0.499-1.837-0.252-2.592c2.003-6.125,4.577-12.099,6.102-18.333c1.951-7.979,1.621-16.171-1.098-23.959
		c-1.435-4.109-3.801-7.94-6.084-11.691c-1.693-2.78-3.753-5.394-5.961-7.795c-4.7-5.109-11.135-7.293-17.428-9.522
		c-4.584-1.625-9.279-3.327-14.314-2.284c-1.134,0.235-2.236,0.795-3.253,1.377c-1.171,0.67-2.213,1.558-3.341,2.307
		c-4.028,2.672-8.209,5.143-12.039,8.074c-1.668,1.276-2.698,3.437-3.881,5.283c-1.463,2.283-3.438,4.5-4.048,7.021
		c-1.996,8.264,0.6,16.182,2.673,24.086c1.389,5.291,3.707,10.52,4.011,15.868c0.409,7.17-0.454,14.46-1.302,21.635
		c-0.478,4.037-1.879,7.995-3.121,11.905c-2.179,6.863-4.792,13.595-6.789,20.507c-2.576,8.925-3.98,18.25-7.219,26.905
		c-5.729,15.313-12.376,30.288-18.808,45.332c-4.249,9.939-8.959,19.684-13.151,29.645c-3.126,7.432-5.633,15.125-8.631,22.616
		c-4.742,11.847-9.776,23.575-14.471,35.442c-2.907,7.344-5.629,14.779-8.053,22.298c-3.578,11.097-7.039,22.243-10.103,33.489
		c-1.449,5.316-2.114,10.89-2.681,16.393c-0.638,6.213-1.363,12.525-0.888,18.705c0.27,3.53,0.939,7.259,1.836,10.782
		c0.941,3.697,1.841,7.833,6.947,8.29c0.696,0.063,1.336,0.728,2.816,1.585c-2.062,0.788-3.274,1.249-4.505,1.72
		C411.296,629.163,410.526,630.41,409.605,631.905z M402.348,623.555c-1.277-3.202-2.559-5.689-3.265-8.329
		c-1.556-5.826,0.767-11.841-0.927-17.846c-0.887-3.142,0.655-6.887,0.389-10.305c-0.312-4.02-0.198-7.689,2.143-11.186
		c0.823-1.229,0.465-3.272,1.324-4.449c1.552-2.129,1.712-4.225,1.385-6.678c-0.189-1.432,0.009-3.062,0.529-4.409
		c1.424-3.693,3.703-7.152,4.549-10.949c1.139-5.108,3.029-10.095,3.898-15.071c0.986-5.64,3.322-10.635,4.807-15.98
		c0.338-1.219,1.42-2.211,2.013-3.383c0.771-1.524,1.331-3.155,2.104-4.679c0.571-1.131,1.103-2.505,2.068-3.157
		c1.654-1.118,2.359-2.103,1.66-4.181c-0.359-1.068-0.031-2.542,0.404-3.673c1.674-4.363,3.484-8.674,5.307-12.978
		c1.164-2.749,2.425-5.455,3.672-8.166c0.389-0.848,1.237-1.643,1.249-2.471c0.079-5.087,2.687-9.362,4.375-13.902
		c1.217-3.275,2.712-6.573,4.75-9.377c3.016-4.148,4.624-8.641,4.858-13.642c0.107-2.278,0.892-3.889,2.706-5.256
		c0.853-0.643,1.904-1.958,1.778-2.808c-0.906-6.069,4.194-9.592,6.265-14.313c1.111-2.536,2.258-4.981,2.983-7.719
		c1.066-4.019,2.207-8.095,4.009-11.811c1.009-2.08,2.247-3.872,3.035-6.237c1.841-5.521,2.632-11.596,6.793-16.244
		c0.879-0.983,1.013-2.751,1.217-4.195c0.46-3.245,0.424-6.593,1.197-9.752c0.785-3.203,2.353-6.208,3.474-9.337
		c0.677-1.889,1.098-3.817-0.471-5.597c-0.275-0.312-0.364-1.177-0.135-1.48c1.917-2.552,2.581-5.437,3.229-8.526
		c0.365-1.74,2.806-3.063,4.353-4.532c1.521-1.444,2.383-3.052,0.985-4.971c-1.374-1.886-1.38-3.736-0.648-5.872
		c0.431-1.254,0.879-3.063,0.302-3.987c-1.267-2.027-0.198-3.187,0.566-4.852c0.857-1.866,1.865-4.423,1.208-6.02
		c-0.727-1.767,0.115-4.853-2.987-5.373c0.232-0.983,0.334-2.022,0.723-2.938c0.786-1.855,2.931-4.514,2.371-5.29
		c-1.498-2.077-0.562-4.138-1.071-6.107c-0.967-3.742-1.75-7.539-2.434-11.345c-0.872-4.848-1.04-9.666,0.324-14.53
		c2.65-9.449,9.619-15.801,16.762-21.311c7.693-5.936,16.994-8.196,26.8-4.273c5.121,2.047,10.847,3.103,15.367,6.041
		c12.662,8.229,19.279,20.511,21.162,35.391c0.371,2.94,0.513,5.909,0.792,9.244c1.85-1.201,3.27-2.459,4.927-3.141
		c8.359-3.446,17.005-5.776,26.086-6.353c9.918-0.63,19.781-0.73,29.495,1.873c0.648,0.172,1.716-0.099,2.182-0.567
		c1.979-1.989,3.827-4.112,5.661-6.239c0.259-0.298,0.174-0.89,0.256-1.347c0.256-1.431,0.517-2.861,0.812-4.492
		c-1.771-2.151-1.939-3.246-0.26-4.35c1.202-0.79,2.565-1.066,1.485-3.114c-0.61-1.156,0.062-2.993-0.559-4.136
		c-1.302-2.396-1.16-3.377,1.346-4.568c1.393-0.662,2.712-1.475,4.194-2.292c-2.067-2.462-1.429-4.139,0.672-5.756
		c1.139-0.875,2.438-2.034,2.815-3.313c0.826-2.821,2.305-5.126,4.646-6.653c3.212-2.094,4.854-5.428,6.611-8.459
		c0.748-1.292,0.049-3.543,2.515-4.22c-0.564-0.848-0.939-1.488-1.388-2.071c-8.688-11.293-19.48-20.167-31.488-27.719
		c-6.389-4.018-12.862-7.72-20.198-9.747c-3.503-0.967-6.936-2.19-10.402-3.292c-8.329-2.646-16.614-5.441-25.002-7.884
		c-6.575-1.915-13.246-3.535-19.933-5.022c-6.617-1.472-13.261-3.258-19.979-3.745c-10.735-0.78-21.539-0.667-32.316-0.808
		c-18.493-0.242-36.818,1.682-54.693,6.264c-9.503,2.437-18.549,6.66-27.807,10.06c-5.633,2.07-11.579,3.531-16.853,6.281
		c-10.416,5.432-21.329,10.011-30.764,17.241c-4.134,3.168-8.561,5.953-13.068,9.059c2.412,1.828,2.012,2.881,0.042,4.133
		c-2.449,1.558-4.966,3.2-6.933,5.295c-8.581,9.148-17.032,18.419-25.404,27.759c-3.624,4.04-6.942,8.35-10.266,12.378
		c7.207,6.439,14.258,12.548,21.054,18.928c1.982,1.86,3.836,2.299,6.26,1.685c11.758-2.98,22.159,0.135,31.912,6.824
		c5.474,3.756,8.78,9,11.357,14.845c3.001,6.806,1.349,15.106-3.711,20.513c-3.036,3.245-6.795,5.183-10.699,7.147
		c-9.091,4.573-18.58,4.535-28.118,2.66c-7.351-1.445-12.599-6.505-17.353-11.996c-7.212-8.333-7.123-20.798-0.499-29.847
		c2.12-2.894,5.112-5.15,7.822-7.814c-0.028-0.049-0.152-0.435-0.409-0.678c-6.016-5.719-12.132-11.335-18.024-17.178
		c-1.985-1.969-3.002-1.416-4.426,0.442c-4.705,6.143-9.592,12.149-14.254,18.323c-8.938,11.832-15.489,25.135-22.95,37.869
		c-3.218,5.492-5.485,11.539-8.24,17.306c-3.804,7.958-8.211,15.681-11.351,23.892c-3.518,9.203-6.391,18.724-8.651,28.317
		c-2.019,8.571-3.352,17.39-4.022,26.172c-0.774,10.136-0.752,20.356-0.598,30.532c0.186,12.171,1.015,24.325,3.915,36.219
		c2.092,8.58,3.928,17.256,6.598,25.657c4.525,14.243,12.938,26.483,21.405,38.582c9.884,14.128,21.766,26.516,34.694,37.865
		c6.431,5.648,13.018,11.104,20.744,15.093c7.596,3.922,14.743,8.721,22.37,12.574c7.274,3.677,14.749,7.105,22.441,9.754
		c5.993,2.063,12.423,2.968,18.724,3.979C395.857,623.969,399.145,623.555,402.348,623.555z M1295.114,495.296
		c0.867,4.759,1.488,9.016,2.436,13.196c1.725,7.62,4.256,15.109,5.311,22.81c1.195,8.753,1.576,17.682,1.492,26.524
		c-0.074,7.425-1.338,14.838-2.062,22.255c-0.332,3.439-0.57,6.888-0.973,10.317c-0.305,2.635-2.605,4.991-1.115,7.894
		c0.014,0.03-0.311,0.176-0.365,0.311c-1.072,2.65-2.154,5.299-3.168,7.969c-0.258,0.681-0.662,1.664-0.377,2.134
		c2.236,3.732-0.34,6.996-0.748,10.497c0.521,0.701,1.105,1.485,1.688,2.265c-0.182,0.178-0.363,0.354-0.545,0.533
		c-0.91-0.523-1.818-1.048-2.73-1.569c-0.254,0.176-0.506,0.353-0.758,0.531c1.193,1.892,2.016,4.272,3.68,5.553
		c1.92,1.472,4.562,2.673,6.932,2.753c5.537,0.186,11.15,0.019,16.641-0.709c12.141-1.606,24.154-3.97,35.826-7.821
		c8.297-2.736,16.793-4.98,24.875-8.252c11.914-4.816,22.613-11.934,32.838-19.65c7.529-5.681,14.629-11.932,22.049-17.759
		c7.938-6.229,14.516-13.688,20.523-21.715c5.359-7.156,10.879-14.2,16.006-21.521c3.332-4.753,6.742-9.642,8.926-14.957
		c2.564-6.242,6.242-11.715,9.547-17.472c2.033-3.543,3.861-7.331,4.996-11.235c2.732-9.392,5.016-18.923,5.178-28.786
		c0.127-7.736,0.572-15.511,0.02-23.206c-0.672-9.366-2.203-18.673-3.439-27.995c-1.717-12.929-5.365-25.389-9.535-37.693
		c-5.113-15.076-12.74-28.997-21.053-42.434c-8.074-13.05-17.205-25.45-25.961-38.073c-2.443-3.525-5.211-6.825-7.916-10.338
		c-1.549,1.299-2.756,2.2-3.832,3.232c-5.447,5.218-10.865,10.465-16.277,15.718c-1.486,1.441-1.557,2.681,0.209,4.178
		c4.133,3.5,7.244,7.825,9.752,12.639c1.848,3.535,2.988,7.326,1.043,10.811c-2.631,4.715-5.473,9.621-9.344,13.248
		c-3.721,3.486-8.625,7.036-13.438,7.773c-13.156,2.016-24.082-3.485-33.162-12.975c-6.627-6.928-8.551-21.973-0.236-30.184
		c4.875-4.811,10.316-8.504,16.619-11.008c1.264-0.503,2.637-1.039,3.957-1.034c6.779,0.028,12.82,2.724,18.59,5.87
		c2.189,1.195,3.168,0.561,4.518-0.892c2.184-2.346,4.441-4.626,6.744-6.851c3.859-3.715,7.779-7.363,11.816-11.175
		c-5.762-5.749-11.598-11.201-18.672-15.089c-10.4-5.715-20.805-11.424-31.322-16.917c-12.355-6.452-25.24-11.693-38.475-16.048
		c-8.494-2.794-16.979-5.664-25.604-7.98c-13.789-3.7-27.787-6.266-42.145-6.583c-12.645-0.282-25.316-1.268-37.803,1.655
		c-8.059,1.886-16.104,3.859-24.08,6.075c-4.502,1.251-8.74,3.593-13.287,4.53c-10.086,2.08-18.588,6.821-26.068,13.842
		c1.545,2.551,2.201,5.12,0.436,7.878c-0.301,0.465-0.223,1.735,0.123,1.96c2.738,1.792,1.441,3.248-0.367,4.588
		c1.715,2.185,2.473,4.352,1.557,6.961c-0.26,0.736-0.166,1.725,0.092,2.488c0.994,2.94,2.484,5.761,3.104,8.767
		c0.861,4.17,0.969,8.492,1.662,12.704c0.434,2.633,1.361,5.184,2.055,7.774c0.352,1.311,0.74,2.615,0.992,3.946
		c0.24,1.268,0.277,2.571,0.488,3.846c0.678,4.083,2.996,7.721,2.383,12.226c-0.582,4.284-0.963,8.803,1.506,12.884
		c0.342,0.567,0.287,1.521,0.115,2.224c-0.43,1.761-0.502,3.24,1.164,4.547c0.508,0.399,0.736,2.174,0.365,2.503
		c-2.676,2.385-1.262,5.417-1.508,8.153c-0.268,2.952-0.42,5.919-0.48,8.881c-0.043,2.053,0.408,4.137,0.197,6.16
		c-0.508,4.862-1.301,9.694-1.912,14.547c-0.111,0.888-0.256,2.081,0.205,2.67c1.359,1.74,0.801,3.123,0.031,4.898
		c-1.07,2.474-1.629,5.17-2.297,7.412c2.141,0.805,3.807,0.984,4.777,1.9c1.676,1.587,3.021,3.565,4.324,5.501
		c1.787,2.659,3.633,4.983,7.316,4.856c0.877-0.03,2.117,0.563,2.613,1.272c1.402,2.006,2.873,1.256,3.535-0.144
		c1.414-2.992,3.033-3.521,5.441-1.081c0.846-1.178,1.512-2.193,2.27-3.137s1.6-1.821,2.414-2.72
		c15.643-17.23,34.238-29.94,56.609-36.803c3.857-1.184,7.799-2.334,11.785-2.829c7.951-0.983,15.975-1.357,23.939-2.243
		c11.25-1.25,21.982,1.204,32.537,4.49c4.074,1.268,7.789,3.693,11.66,5.609c5.998,2.971,12.057,5.975,16.475,11.154
		c4.123,4.841,8.061,9.888,11.611,15.159c3.037,4.508,5.742,9.307,7.996,14.251c3.883,8.511,5.602,17.527,4.947,26.948
		c-0.205,2.977-0.324,5.995-0.061,8.958c0.607,6.822-0.586,13.444-3.189,19.559c-2.17,5.093-5.412,9.812-8.684,14.33
		c-5.486,7.573-12.289,13.682-20.979,17.603c-10.287,4.639-21.047,6.892-32.254,7.46c-8.734,0.441-17.359-0.036-25.768-2.583
		C1299.782,497.323,1297.61,496.283,1295.114,495.296z M881.167,439.477c-2.309-3.492-4.377-6.565-6.389-9.677
		c-3.69-5.709-8.764-10.056-13.901-14.367c-6.983-5.858-14.343-11.246-22.924-14.358c-6.147-2.229-12.656-3.581-19.095-4.862
		c-7.375-1.466-14.816-2.776-22.292-3.515c-10.753-1.064-21.517-0.642-32.209,1.212c-10.986,1.903-21.377,5.419-30.688,11.585
		c-5.458,3.613-11.41,6.092-14.223,13.513c-3.562,9.396-9.316,18.001-14.479,26.738c-4.633,7.841-9.785,15.376-14.632,23.095
		c-3.217,5.123-6.444,10.21-11.315,13.987c-1.856,1.441-3.665,2.94-5.496,4.415c1.7,1.334,2.854,1.873,3.164,2.721
		c3.78,10.363,8.769,20.129,14.343,29.621c7.267,12.377,11.77,25.857,15.509,39.616c2.17,7.981,4.272,15.994,6.097,24.062
		c1.751,7.744,3.288,15.548,4.548,23.383c0.502,3.129,0.408,6.489-0.134,9.619c-0.612,3.54,0.209,6.306,1.886,9.427
		c4.153,7.728,10.542,12.846,17.976,16.931c0.882,0.482,2.147,0.27,2.857,0.342c0.38,0.571,0.644,1.377,1.196,1.725
		c2.58,1.607,5.396,2.773,8.053,4.291c7.479,4.272,15.728,6.96,24.243,7.994c5.247,0.637,10.691-0.275,16.04-0.593
		c1.469-0.086,2.918-0.53,4.967-0.921c-0.097,0.251,0.094-0.25,0.235-0.624c0.838,0.128,1.683,0.43,2.49,0.35
		c2.021-0.199,4.034-0.523,6.034-0.884c6.28-1.133,12.787-1.277,18.541-4.664c1.99-1.17,4.245-2.063,6.494-2.588
		c6.065-1.412,10.434-5.464,14.607-9.535c7.625-7.438,12.574-16.76,17.328-26.18c2.713-5.38,5.674-10.638,8.67-15.866
		c0.363-0.636,1.628-0.753,2.475-1.11c0.227,0.853,0.887,1.896,0.607,2.519c-1.49,3.319-3.222,6.53-4.858,9.782
		c-3.853,7.654-7.847,15.243-11.479,23.001c-1.693,3.622-2.835,7.533-3.941,11.395c-1.467,5.121-1.751,10.281-0.648,15.618
		c1.496,7.237,4.84,13.16,11.444,16.562c5.034,2.596,10.347,4.812,15.762,6.442c4.34,1.308,8.624-0.231,12.072-3.207
		c2.505-2.165,4.013-4.395,3.829-8.496c-0.297-6.573-2.971-11.498-6.287-15.537c0.315-2.859,1.113-5.235,0.707-7.383
		c-0.998-5.271-1.549-10.439-1.564-15.876c-0.04-13.62,2.25-26.893,4.576-40.176c2.143-12.236,4.639-24.41,7.088-36.589
		c2.191-10.897,4.564-21.757,6.797-32.646c1.926-9.393,3.938-18.771,5.605-28.211c2.049-11.615,3.721-23.296,5.664-34.931
		c2.025-12.119,3.914-24.254,3.492-36.591c-0.277-8.095-3.639-14.522-11.051-18.354c-2.323-1.203-4.775-2.211-7.256-3.055
		c-2.981-1.015-6.095-2.587-9.084-2.453c-6.804,0.305-10.631,5.314-12.583,11.063c-1.766,5.201-2.185,10.876-2.989,16.372
		c-0.158,1.084,0.56,2.331,0.998,3.455c1.242,3.191,2.656,6.322,3.751,9.562C882.067,437.437,881.39,438.569,881.167,439.477z
		 M1191.634,521.252c3.689,1.176,5.141-1.794,5.859-3.738c3.246-8.789,6.26-17.691,8.766-26.718
		c3.652-13.15,4.297-26.714,3.449-40.236c-0.678-10.796-1.623-21.585-8.73-30.876c-4.379-5.728-8.648-11.357-14.352-15.845
		c-9.66-7.602-19.791-14.444-31.018-19.524c-9.752-4.415-19.941-7.062-30.732-6.034c-6.545,0.625-13.127,1.395-19.531,2.816
		c-10.904,2.417-21.863,4.852-32.443,8.358c-5.984,1.984-11.379,5.924-16.82,9.332c-7.445,4.664-10.229,11.92-10.162,20.392
		c0.02,2.248-0.559,2.751-2.309,1.755c-1.232,9.34-2.404,18.678-3.707,27.994c-1.566,11.194-3.033,22.401-4.924,33.539
		c-1.764,10.385-3.918,20.705-6.098,31.015c-2.643,12.501-5.531,24.952-8.234,37.441c-1.787,8.269-3.174,16.636-5.213,24.843
		c-3.432,13.805-4.676,27.865-5.596,41.984c-0.053,0.771,0.08,1.764,0.535,2.317c1.402,1.71,3.051,3.217,4.52,4.877
		c6.303,7.106,13.789,12.75,21.48,18.277c10.371,7.455,21.828,12.68,33.609,17.133c8.787,3.318,18.16,4.146,27.602,3.285
		c8.738-0.794,17.668-0.665,26.176-2.502c10.146-2.191,19.533-6.59,28.121-12.949c7.807-5.781,15.037-11.858,19.941-20.265
		c3.373-5.782,5.672-12.079,5.229-18.931c-0.217-3.358-1.211-6.655-1.721-10.002c-0.834-5.47-0.986-11.114-2.451-16.4
		c-2.834-10.22-8.021-19.316-15.502-26.931c-1.506-1.532-3.604-3.281-5.521-3.399c-2.459-0.15-5.006,1.267-7.523,1.977
		c-1.496,0.423-3.018,1.125-4.52,1.104c-3.771-0.053-7.705-1.323-10.77,2.142c-0.156,0.175-0.6,0.302-0.787,0.211
		c-2.283-1.134-4.547-2.311-7.025-3.584c-1.709,1.257-6.035,1.151-7.766-0.74c-1.045-1.145-1.898-1.44-3.396-0.968
		c-0.764,0.238-2.561-0.34-2.613-0.721c-0.303-2.246-2.055-1.923-3.461-2.446c-4.361-1.626-9.01-2.861-12.895-5.291
		c-4.674-2.924-9.035-6.579-12.852-10.569c-2.768-2.892-5.57-6.607-6.338-10.369c-1.494-7.279,2.914-13.375,9.154-17.376
		c0.588-0.375,1.844,0.297,2.791,0.484c-0.227,0.786-0.268,1.711-0.723,2.331c-0.715,0.976-1.84,1.653-2.553,2.628
		c-1.369,1.862-2.945,3.703-3.771,5.812c-1.885,4.818,0.854,8.638,3.641,12.062c10.014,12.308,23.131,18.333,38.945,18.456
		c7.09,0.058,14.188-0.286,21.275-0.146c9.236,0.185,17.902-2.062,26.254-5.694c4.641-2.019,9.424-3.94,13.607-6.717
		C1185.462,531.575,1192.222,529.454,1191.634,521.252z M1275.599,461.417c-3.312,1.453-3.543,4.186-2.629,6.653
		c1.152,3.114,2.594,6.348,4.738,8.813c2.865,3.298,6.797,5.653,9.783,8.867c5.061,5.447,11.873,8.094,18.469,9.38
		c14.311,2.791,28.875,2.893,43.078-1.646c7.871-2.514,15.34-5.716,21.439-11.573c7.248-6.965,12.865-15.005,16.361-24.424
		c2.26-6.088,3.232-12.327,0.617-18.642c-0.189-0.459-0.242-1.085-0.098-1.553c2.611-8.461,1.285-16.694-1.854-24.639
		c-2.449-6.19-5.236-12.289-8.412-18.135c-2.67-4.911-5.717-9.739-9.32-13.991c-4.605-5.437-10.68-9.184-17.301-11.884
		c-1.527-0.622-3.203-0.865-4.502-1.2c-1.367-1.081-2.504-2.275-3.887-2.988c-1.57-0.81-3.33-1.33-5.064-1.729
		c-6.578-1.515-13.174-4.064-19.781-4.126c-10.9-0.101-21.902,0.838-32.705,2.405c-17.258,2.501-32.734,9.897-46.82,19.953
		c-10.494,7.488-20.008,16.125-26.854,27.313c-1.875,3.063-4.045,5.945-6.08,8.91c0.059,0.921,0.963,2.128,1.586,3.466
		c2.953,6.334,4.791,12.914,5.879,19.9c2.047,13.142,1.52,26.218,0.018,39.247c-1.531,13.241-5.787,25.889-10.936,38.125
		c-1.895,4.496-4.832,8.914-8.328,12.299c-6.592,6.386-14.719,10.747-23.164,14.323c-4.416,1.875-9.018,3.315-13.566,4.962
		c0.217,0.452,0.254,0.663,0.379,0.775c8.945,8.046,15.514,17.778,19.027,29.219c2.479,8.064,3.623,16.527,5.777,24.704
		c0.867,3.288-0.439,6.975,3.248,9.904c6.02,4.78,10.814,11.137,16.957,15.718c6.271,4.681,13.477,8.144,20.422,11.865
		c1.691,0.907,3.961,0.745,6.035,1.086c0.162,0.223,0.5,1.106,1.131,1.465c0.871,0.489,1.951,0.657,2.965,0.831
		c13.273,2.27,25.01-2.347,36.461-8.187c2.885-1.473,5.867-2.839,8.502-4.686c2.072-1.45,3.918-3.391,5.398-5.446
		c1.07-1.486,1.164-3.641,2.072-5.287c1.773-3.208,4.514-6.043,5.609-9.438c2.855-8.842,5.697-17.785,7.328-26.907
		c2.572-14.367,3.521-28.915,2.676-43.59c-0.625-10.799-4.477-20.755-6.809-31.105c-0.086-0.382-0.545-0.962-0.84-0.969
		c-2.275-0.047-2.463-1.995-3.264-3.401c-0.822-1.438-1.566-2.944-2.555-4.267c-1.367-1.826-2.982-3.468-4.387-5.268
		c-1.402-1.795-2.713-3.66-3.99-5.544c-0.961-1.421-1.859-2.889-2.676-4.396c-0.584-1.074-0.74-2.98-1.516-3.239
		c-2.852-0.949-2.279-3.36-2.818-5.312c-0.576-2.074-1.354-4.126-1.621-6.24c-0.367-2.944-0.691-5.975-0.387-8.9
		C1269.681,460.161,1272.985,459.239,1275.599,461.417z M936.106,289.045c0.248-0.494,0.854-1.66,1.426-2.838
		c1.734-3.545,3.424-7.114,5.23-10.624c0.246-0.484,1.061-0.679,1.613-1.008c0.021,0.647,0.244,1.365,0.043,1.93
		c-3.531,9.796-7.105,19.577-10.695,29.352c-0.381,1.041-0.908,2.03-1.398,3.029c-0.576,1.17-1.326,2.277-1.748,3.497
		c-0.393,1.144-0.389,2.417-0.678,3.605c-2.518,10.359-5.348,20.653-7.531,31.083c-2.914,13.9-5.588,27.865-7.814,41.889
		c-0.723,4.539-0.277,9.642,2.754,13.522c3.568,4.57,5.551,9.682,5.98,15.239c0.996,12.881-0.693,25.603-3.072,38.247
		c-1.807,9.605-3.549,19.226-5.291,28.844c-2.535,13.987-4.947,27.999-7.605,41.965c-1.656,8.686-3.766,17.284-5.49,25.957
		c-1.985,9.972-3.805,19.977-5.633,29.979c-1.625,8.888-3.674,17.736-4.61,26.7c-1.22,11.672-2.522,23.449,0.542,35.118
		c0.641,2.434,0.111,5.427,1.34,7.403c3.396,5.471,3.807,11.589,4.813,17.6c0.19,1.137-0.108,2.54-0.642,3.585
		c-3.769,7.367-9.689,10.667-18.092,10.652c-5.312-0.012-5.316-0.269-7.48,4.647c-0.267,0.603-0.461,1.235-0.674,1.859
		c-4.475,13.106-2.735,25.659,3.631,37.675c1.832,3.455,3.723,7.291,7.742,8.683c4.361,1.506,8.871,2.765,13.419,3.512
		c6.261,1.029,12.374-0.67,18.413-2.152c4.053-0.994,7.598-3.203,9.834-6.699c2.826-4.419,5.475-9.027,7.566-13.831
		c4.236-9.733,5.414-20.283,7.229-30.625c0.506-2.888-0.332-5.999,0.07-8.921c1.41-10.262,3.102-20.483,4.67-30.725
		c1.727-11.258,3.396-22.526,5.17-33.778c1.244-7.907,2.607-15.796,3.949-23.688c1.121-6.597,2.184-13.206,3.459-19.774
		c1.795-9.232,4.057-18.387,5.598-27.662c2.498-15.05,4.59-30.168,6.828-45.262c1.518-10.257,3.012-20.518,4.484-30.78
		c1.578-11.01,2.898-22.064,4.736-33.033c2.123-12.679,3.57-25.392,4.045-38.246c0.254-6.869,1.117-13.72,1.781-20.572
		c0.756-7.776,2.008-15.53,2.316-23.32c0.406-10.276,0.135-20.583,0.1-30.875c-0.018-5.09-0.957-10.327-0.045-15.231
		c1.26-6.772,2.713-13.407,2.783-20.375c0.084-8.192-0.377-16.297-2.975-24.039c-3.875-11.556-9.334-22.152-21.104-27.762
		c-4.494-2.141-9.502-4.098-13.957-0.884c-8.057,5.812-13.08,13.845-15.35,23.651c-0.799,3.459,0.1,6.627,0.221,9.938
		C936.31,273.549,936.106,281.611,936.106,289.045z M992.114,268.569c0.389,4.731,0.824,9.197,1.088,13.672
		c0.096,1.677-0.443,3.399-0.295,5.064c0.424,4.683-0.229,9.144-1.67,13.623c-0.824,2.558-1.227,5.394-1.133,8.081
		c0.568,15.849,0.604,31.684-0.738,47.496c-0.701,8.261-1.633,16.502-2.318,24.765c-0.68,8.168-1.027,16.367-1.811,24.524
		c-0.701,7.306-1.729,14.584-2.734,21.858c-1.352,9.79-2.766,19.571-4.256,29.34c-1.162,7.634-2.525,15.236-3.713,22.865
		c-0.936,6.047-1.713,12.122-2.609,18.178c-1.379,9.311-2.834,18.61-4.195,27.926c-0.953,6.519-1.619,13.084-2.75,19.571
		c-1.209,6.942-2.982,13.784-4.203,20.725c-3.246,18.469-6.486,36.941-9.434,55.459c-2.695,16.946-4.982,33.955-7.496,50.931
		c-0.693,4.683-1.205,9.295,1.031,13.774c0.371,0.745,0.396,2.189-0.078,2.737c-2.328,2.684-1.484,5.938-1.824,8.931
		c-0.691,6.104-0.672,12.195,0.711,18.27c1.635,7.176,5.504,13.124,9.672,18.982c2.51,3.526,6.045,4.893,10.102,5.415
		c7.305,0.938,14.205-0.677,21.07-3.017c8.654-2.949,14.152-8.572,15.084-17.79c1.34-13.22,2.406-26.47,3.375-39.722
		c0.533-7.257,0.684-14.545,0.91-21.821c0.248-8.043,0.383-16.091,0.584-24.137c0.006-0.358,0.166-0.71,0.252-1.064
		c0.348-1.428,0.891-2.838,1-4.284c0.312-4.139,0.252-8.312,0.689-12.435c1.246-11.719,2.199-23.498,4.148-35.104
		c2.031-12.063,5.143-23.943,7.691-35.921c3.92-18.423,7.881-36.835,11.584-55.299c1.648-8.226,2.854-16.545,3.998-24.858
		c1.586-11.485,2.998-22.998,4.324-34.516c0.432-3.737,0.402-7.532,0.521-11.302c0.076-2.507-0.219-5.054,0.105-7.523
		c0.818-6.16,2.367-12.254,2.771-18.431c0.889-13.576,2.559-27.034,4.543-40.484c1.525-10.344,2.633-20.767,3.449-31.193
		c1.145-14.612,1.014-29.232-1.055-43.793c-1.246-8.798-3.217-17.38-7.625-25.176c-6.033-10.665-13.725-19.351-26.9-20.793
		c-4.207-0.461-8.326,0.379-10.971,3.822c-6.576,8.556-10.475,18.039-8.287,29.138C995.179,267.37,995.259,269.158,992.114,268.569z
		 M350.046,287.497c3.632,6.463,7.126,12.78,10.73,19.031c0.931,1.614,0.608,2.951-0.913,3.384c-0.88,0.251-2.397-0.527-3.134-1.307
		c-0.778-0.824-0.923-2.224-1.421-3.338c-2.587-5.771-5.929-11.062-10.263-16.278c-1.95,1.479-3.858,2.671-5.46,4.189
		c-3.236,3.063-4.162,7.321-5.146,11.401c-2.026,8.407,5.759,18.866,13.374,18.643c0.86-0.025,1.744,0.818,2.621,1.255
		c1.006,0.501,1.98,1.326,3.03,1.443c6.535,0.732,12.741-0.719,18.668-3.362c4.508-2.011,8.604-4.613,11.261-9.009
		c3.675-6.079,2.368-12.015-0.786-17.672c-1.256-2.256-1.695-6.281-6.158-4.808c-0.284,0.095-0.857-0.639-1.279-1.007
		C368.863,284.551,357.344,283.417,350.046,287.497z M1400.497,314.914c-2.234,4.122-4.158,7.881-6.324,11.492
		c-0.469,0.782-2.086,1.661-2.717,1.399c-1.363-0.564-1.1-1.803-0.277-3.054c2.068-3.142,4.041-6.353,5.881-9.634
		c0.348-0.623,0.238-2.101-0.236-2.495c-6.879-5.733-17.494-6.249-24.666-0.87c-5.018,3.763-6.951,7.27-4.664,13.924
		c3.125,9.084,20.908,20.935,33.092,17.361c6.982-2.049,11.953-10.519,10.33-16.968
		C1409.558,320.678,1405.181,317.976,1400.497,314.914z M1370.085,306.365c0.223,0.334,0.449,0.667,0.672,1.001
		c1.832-0.79,3.664-1.586,5.498-2.369c6.475-2.763,12.539-0.709,18.559,1.645c2.064,0.808,4.34,2.767,6.049,2.336
		c1.775-0.446,2.863-3.271,4.465-4.838c1.686-1.651,1.082-2.456-0.703-3.274c-1.875-0.859-3.65-1.941-5.535-2.774
		c-5.873-2.594-11.775-3.87-17.672-0.009c-0.707,0.463-1.551,0.729-2.219,1.235C1376.138,301.639,1373.118,304.011,1370.085,306.365
		z M1415.312,332.662c0.324,0.102,0.643,0.204,0.967,0.306c1.393-2.408,3.059-4.708,4.088-7.262
		c0.668-1.659,1.041-3.923,0.453-5.511c-2.18-5.884-5.426-11.194-10.5-15.096c-0.564-0.435-2.25-0.305-2.721,0.205
		c-1.32,1.429-2.381,3.137-3.305,4.862c-0.264,0.494,0.041,1.674,0.498,2.098c1.227,1.139,2.777,1.93,4.021,3.057
		c3.689,3.347,6.943,7,6.895,12.418C1415.694,329.38,1415.452,331.021,1415.312,332.662z M329.406,311.028
		c0.379-10.575,3.198-19.805,13.01-25.523c-2.19-2.057-3.711-4.723-6.851-2.459c-3.883,2.8-7.278,5.945-8.45,10.897
		C325.698,299.932,325.278,305.744,329.406,311.028z M362.159,280.499c-2.852-2.486-15.686-2.389-18.994,0.557
		c1.667,0.975,3.304,2.765,4.665,2.575C352.62,282.963,357.316,281.614,362.159,280.499z M1193.954,629.134
		c0.049-0.275,0.1-0.551,0.148-0.828c-1.061-0.748-2.119-1.498-3.303-2.337c-0.295,1.55-0.52,2.717-0.811,4.241
		C1191.419,629.823,1192.687,629.477,1193.954,629.134z M846.015,648.315c-0.275-0.033-0.551-0.068-0.826-0.104
		c0,2.36,0,4.723,0,7.163c0.198,0,0.729,0,1.229,0C846.278,652.938,846.146,650.628,846.015,648.315z M1169.841,637.682
		c0.148,0.364,0.293,0.729,0.439,1.094c2.172-0.892,4.344-1.787,6.514-2.68c-0.113-0.276-0.227-0.55-0.34-0.828
		C1174.251,636.072,1172.046,636.876,1169.841,637.682z"/>
	<path fill-rule="evenodd" clip-rule="evenodd" d="M1625.722,222.944c11.662,0.772,22.127,10.741,23.742,22.604
		c0.279,2.047,0.762,4.079,0.885,6.133c0.379,6.437-3.234,10.873-7.893,14.505c-7.742,6.032-16.607,7.473-25.963,5.082
		c-10.883-2.78-19.984-9.435-22.316-21.705c-0.395-2.088,0.219-4.447,0.691-6.609c1.451-6.629,5.221-11.644,11.201-14.835
		C1611.339,225.307,1619.649,221.899,1625.722,222.944z M1633.728,229.089c-0.643,1.055-1.033,1.944-1.676,2.574
		c-0.16,0.157-1.385-0.363-1.705-0.849c-2.148-3.259-5.395-3.965-8.904-3.794c-8.311,0.403-14.521,4.772-19.543,10.986
		c-2.42,3.001-3.783,6.561-2.873,10.545c3.895,17.042,23.777,23.574,36.723,17.039c9.584-4.837,10.205-14.73,8.33-23.162
		C1642.817,236.755,1638.384,232.633,1633.728,229.089z"/>
	<path fill-rule="evenodd" clip-rule="evenodd" d="M221.862,229.757c-0.476,7.975-4.887,13.505-11.261,17.868
		c-5.099,3.489-10.341,3.508-15.77,0.988c-5.968-2.772-12.236-5.058-17.813-8.469c-6.944-4.251-8.424-14.896-2.857-19.963
		c7.003-6.376,15.207-10.357,25.075-7.656c5.211,1.426,10.427,3.061,15.348,5.256C219.464,219.956,222.547,223.809,221.862,229.757z
		 M197.465,216.131c-3.952,1.043-8.035,1.745-11.822,3.212c-4.954,1.92-8.941,10.539-3.747,15.886
		c1.375,1.415,2.58,2.998,3.974,4.39c4.877,4.86,15.788,6.837,22.152,2.186c4.703-3.436,7.934-7.511,9.446-13.154
		c0.627-2.34,0.449-4.015-1.509-5.448C210.507,219.208,204.461,216.938,197.465,216.131z"/>
	<path fill-rule="evenodd" clip-rule="evenodd" d="M132.422,220.769c0.706-1.29,1.667-3.876,3.339-5.868
		c1.595-1.9,3.838-3.331,5.992-4.649c0.728-0.445,2.055,0.085,3.108,0.169c-0.466,0.955-0.734,2.111-1.447,2.817
		c-1.05,1.042-2.41,1.771-3.648,2.619c-4.401,3.017-4.503,8.065-2.427,12.073c1.325,2.557,3.307,4.767,4.906,7.191
		c0.46,0.696,0.614,1.596,0.908,2.401c-0.918-0.124-2.089,0.073-2.714-0.42C135.628,233.309,132.92,228.332,132.422,220.769z"/>
	<path fill-rule="evenodd" clip-rule="evenodd" d="M1676.938,234.848c0.762,0.099,1.633-0.008,2.27,0.325
		c4.535,2.365,5.664,12.777,1.865,16.571c-1.539,1.536-4.051,0.951-4.217-1.282c-0.205-2.764-0.189-5.748,0.66-8.329
		c0.824-2.5,0.969-4.458-0.859-6.466C1676.751,235.393,1676.845,235.121,1676.938,234.848z"/>
	<path fill-rule="evenodd" clip-rule="evenodd" d="M1566.769,245.983c0.311-1.456,0.428-2.996,1.016-4.329
		c0.281-0.64,1.596-1.364,2.193-1.191c0.799,0.231,1.771,1.21,1.939,2.022c0.646,3.081,1.098,6.215,1.396,9.351
		c0.084,0.852-0.615,1.776-0.957,2.668c-0.834-0.401-1.947-0.589-2.453-1.245C1568.272,251.151,1565.946,249.234,1566.769,245.983z"
		/>
	<path fill-rule="evenodd" clip-rule="evenodd" d="M239.11,220.755c-1.002,3.369-1.559,6.072-2.666,8.529
		c-0.413,0.917-2.232,1.913-3.184,1.725c-1.732-0.343-1.111-1.86-0.741-3.228c0.402-1.488,0.299-3.109,0.456-4.669
		c0.099-1.005-0.042-2.224,0.478-2.953c0.72-1.011,2.348-2.521,2.897-2.276C237.583,218.436,238.391,219.937,239.11,220.755z"/>
	<path fill-rule="evenodd" clip-rule="evenodd" d="M243.099,224.06c-0.413-1.353-1.006-2.667-1.165-4.032
		c-0.111-0.953,0.371-1.978,0.587-2.969c0.697,0.413,1.52,0.701,2.065,1.259c2.283,2.344,2.22,5.279,1.673,8.184
		c-0.345,1.832-0.926,3.665-1.722,5.345c-0.396,0.832-1.517,1.321-2.309,1.964c-0.311-1.055-1.004-2.168-0.852-3.151
		C241.718,228.458,242.481,226.321,243.099,224.06z"/>
	<path fill-rule="evenodd" clip-rule="evenodd" d="M155.725,220.941c-0.254,2.957-0.154,5.188-0.75,7.216
		c-0.278,0.951-1.916,2.138-2.905,2.108c-1.72-0.05-2.864-1.4-2.361-3.363c0.508-1.984,1.007-4.003,1.839-5.861
		c0.444-0.993,1.578-1.675,2.401-2.499C154.663,219.507,155.377,220.47,155.725,220.941z"/>
	<path fill-rule="evenodd" clip-rule="evenodd" d="M1671.562,244.84c0,0.472,0.16,1.024-0.029,1.403
		c-0.459,0.924-1.078,1.768-1.631,2.644c-0.752-0.815-1.752-1.518-2.186-2.478c-0.439-0.972-0.229-2.217-0.465-3.307
		c-0.35-1.606-0.033-3.173,1.658-3.158c0.867,0.006,1.859,1.61,2.516,2.667c0.336,0.546,0.057,1.474,0.057,2.229
		C1671.511,244.84,1671.536,244.84,1671.562,244.84z"/>
	<path fill-rule="evenodd" clip-rule="evenodd" d="M1582.173,244.922c-0.148,1.494,0.584,4.169-2.242,3.848
		c-2.271-0.258-2.016-2.75-1.963-4.62c0.008-0.273,0.057-0.595,0.207-0.808c0.67-0.943,1.383-1.854,2.08-2.778
		c0.641,1.093,1.297,2.174,1.902,3.288C1582.274,244.07,1582.173,244.405,1582.173,244.922z"/>
	<path fill-rule="evenodd" clip-rule="evenodd" fill="#FFFFFF" d="M990.548,259.388c-2.773-5.71-4.953-11.008-7.812-15.912
		c-4.65-7.98-11.801-12.982-20.555-15.798c-6.598-2.123-12.18-0.708-17.082,4.212c-7.578,7.609-12.178,16.691-13.957,27.229
		c-0.168,0.99-0.002,2.094,0.248,3.086c2.297,9.179,1.764,18.41-0.115,27.496c-2.859,13.826-6.254,27.54-9.346,41.317
		c-2.518,11.214-5.188,22.404-7.291,33.697c-1.652,8.867-2.621,17.866-3.701,26.829c-0.252,2.085,0.283,4.264,0.504,6.975
		c-1.604-0.83-2.84-1.577-4.154-2.129c-5.646-2.367-11.203-5.237-17.668-3.509c-3.234,0.864-6.104,2.188-8.261,4.98
		c-4.554,5.901-6.731,12.531-6.776,19.94c-0.006,0.944-0.352,1.888-0.494,2.593c-8.105-5.99-15.787-12.152-23.961-17.572
		c-8.076-5.354-17.371-7.996-26.833-9.83c-7.473-1.448-14.942-3.381-22.489-3.844c-9.751-0.598-19.613-0.409-29.365,0.303
		c-8.592,0.627-17.004,2.577-25.275,5.432c-7.172,2.476-13.157,6.712-19.488,10.509c-0.375,0.226-0.775,0.409-1.779,0.935
		c0.758-2.2,1.466-3.796,1.848-5.464c0.663-2.896,1.535-5.828,1.604-8.761c0.418-17.561-5.695-33.367-13.604-48.61
		c-6.281-12.106-13.995-23.291-23.675-32.893c-9.256-9.183-19.428-17.351-30.702-24.01c-2.665-1.574-5.558-2.764-8.35-4.122
		c-2.383-1.158-4.83-2.2-7.111-3.531c-0.517-0.303-0.777-1.658-0.616-2.412c0.992-4.604,2-9.214,3.262-13.75
		c4.034-14.5,12.502-26.567,21.153-38.672c0.841,0.466,1.462,0.81,2.305,1.277c0.097-0.67,0.36-1.226,0.186-1.491
		c-1.094-1.652-0.295-2.566,0.933-3.769c6.199-6.065,11.92-12.663,18.459-18.321c15.457-13.376,30.624-27.172,48.339-37.663
		c11.974-7.091,23.906-14.255,35.951-21.225c9.94-5.753,19.797-11.727,30.1-16.763c10.612-5.188,21.717-9.371,32.621-13.957
		c0.94-0.395,2.003-0.502,3.003-0.769c0.449-0.12,1.186-0.2,1.278-0.473c1.684-4.964,6.653-3.997,10.132-5.272
		c6.336-2.324,12.959-4.023,19.588-5.354c5.701-1.144,11.564-1.655,17.381-2.018c17.529-1.094,35.064-2.12,52.613-2.9
		c13.643-0.608,27.178,0.72,40.609,3.17c5.193,0.948,10.598,1.141,15.59,2.695c8.523,2.649,16.824,6.028,25.164,9.24
		c6.766,2.605,13.678,4.97,20.117,8.245c8.287,4.216,16.355,8.94,24.164,13.99c6.947,4.493,13.422,9.72,20.09,14.641
		c13.168,9.723,25.098,20.872,35.908,33.078c5.994,6.769,12.047,13.723,15.984,22.086c0.242,0.509,0.428,1.205,0.85,1.449
		c7.469,4.315,9.186,12.46,12.609,19.345c3.293,6.625,6.117,13.559,8.389,20.602c3.158,9.789,6.152,19.695,8.236,29.754
		c2.939,14.207,5.625,28.527,7.225,42.931c1.49,13.405,1.779,26.979,1.92,40.487c0.1,9.6-0.873,19.215-1.484,28.815
		c-0.111,1.719-0.818,3.399-1.318,5.372c-3.354-2.008-6.408-3.682-9.303-5.6c-7.559-5.006-16.047-7.808-24.695-9.916
		c-11.32-2.761-22.771-1.557-34.064,0.538c-7.875,1.459-15.721,3.217-23.432,5.37c-6.938,1.937-13.613,4.795-20.521,6.854
		c-3.838,1.144-7.908,1.54-11.893,2.13c-0.639,0.093-1.688-0.384-2.027-0.925c-1.02-1.608-1.777-3.377-2.445-4.701
		c-0.242-1.959-0.643-3.642-0.617-5.316c0.043-2.813,0.219-5.642,0.59-8.43c1.068-8.017,2.301-16.01,3.398-24.023
		c0.893-6.538,2.123-13.068,2.432-19.638c0.645-13.66,1.857-27.354,0.049-41.015c-1.072-8.097-1.986-16.257-3.789-24.204
		c-1.061-4.682-3.445-9.144-5.713-13.455c-4.619-8.787-11.59-15.231-20.814-18.998c-8.227-3.36-17.846-1.742-22.449,4.078
		c-3.924,4.96-6.75,10.633-8.123,16.901C991.638,253.663,991.142,256.389,990.548,259.388z"/>
	<path fill-rule="evenodd" clip-rule="evenodd" fill="#FFFFFF" d="M409.605,631.905c0.921-1.495,1.691-2.742,2.357-3.822
		c1.23-0.471,2.442-0.932,4.505-1.72c-1.479-0.857-2.12-1.521-2.816-1.585c-5.105-0.457-6.006-4.593-6.947-8.29
		c-0.897-3.523-1.566-7.252-1.836-10.782c-0.475-6.18,0.25-12.492,0.888-18.705c0.567-5.503,1.232-11.076,2.681-16.393
		c3.064-11.246,6.525-22.393,10.103-33.489c2.424-7.519,5.146-14.954,8.053-22.298c4.695-11.867,9.729-23.596,14.471-35.442
		c2.998-7.491,5.505-15.185,8.631-22.616c4.191-9.961,8.902-19.705,13.151-29.645c6.432-15.044,13.078-30.019,18.808-45.332
		c3.239-8.655,4.644-17.98,7.219-26.905c1.997-6.912,4.61-13.644,6.789-20.507c1.241-3.911,2.643-7.868,3.121-11.905
		c0.848-7.175,1.711-14.465,1.302-21.635c-0.304-5.348-2.623-10.577-4.011-15.868c-2.074-7.904-4.669-15.822-2.673-24.086
		c0.61-2.522,2.585-4.738,4.048-7.021c1.183-1.846,2.213-4.006,3.881-5.283c3.83-2.931,8.011-5.401,12.039-8.074
		c1.128-0.75,2.17-1.637,3.341-2.307c1.017-0.583,2.119-1.143,3.253-1.377c5.036-1.042,9.73,0.66,14.314,2.284
		c6.292,2.229,12.728,4.413,17.428,9.522c2.208,2.401,4.268,5.015,5.961,7.795c2.284,3.751,4.65,7.582,6.084,11.691
		c2.718,7.788,3.049,15.98,1.098,23.959c-1.525,6.234-4.099,12.209-6.102,18.333c-0.247,0.754,0.151,1.723,0.252,2.592
		c0.831-0.386,2.052-0.541,2.434-1.191c4.021-6.836,8.247-13.62,8.17-22.004c-0.004-0.506,0.664-1.178,1.185-1.506
		c5.407-3.408,11.467-5.021,17.595-6.582c12.401-3.16,24.894-3.131,37.404-1.258c6.129,0.918,12.144,2.586,18.227,3.833
		c2.551,0.523,4.414,1.556,4.646,4.467c0.035,0.444,0.636,0.842,1.138,1.464c0.691-1.015,1.248-1.831,2.107-3.093
		c3.227,1.659,6.703,3.077,9.783,5.099c11.218,7.364,22.025,15.338,30.923,25.459c9.675,11.005,18.017,23.002,23.348,36.771
		c2.979,7.691,5.963,15.477,7.819,23.48c1.873,8.072,0.261,16.17-2.331,24.118c-4.826,14.788-12.911,27.917-20.646,41.177
		c-6.732,11.541-14.167,22.698-21.729,33.72c-4.159,6.063-9.816,10.834-15.959,14.989c-2.83,1.912-5.262,4.406-7.965,6.52
		c-6.299,4.925-13.559,7.808-21.341,9.182c-6.945,1.223-13.968,2.531-20.982,2.692c-7.498,0.173-15.051-0.725-22.53-1.597
		c-4.735-0.551-9.621-1.298-14-3.055c-5.59-2.239-11.052-5.131-16.009-8.554c-8.867-6.115-15.609-14.452-21.912-23.1
		c-1.153-1.581-1.932-3.433-2.981-5.098c-0.624-0.988-1.438-1.859-2.161-2.776c-3.05,2.346-3.076,2.918-1.279,5.72
		c7.624,11.879,16.976,22.188,28.581,30.204c7.409,5.121,15.727,8.651,24.785,9.607c9.736,1.027,19.524,2.085,29.294,2.139
		c11.66,0.064,23.024-2.568,33.807-7.011c3.936-1.621,7.48-4.305,10.987-6.805c4.461-3.183,8.704-6.671,12.984-9.984
		c2.861,6.551,5.564,13.029,8.523,19.388c1.458,3.136,3.296,6.108,5.165,9.025c0.489,0.762,1.734,1.036,1.971,1.168
		c0.76,2.373,1.281,4.454,2.085,6.419c2.985,7.296,6.377,14.439,9.016,21.854c2.355,6.613,4.197,13.445,5.732,20.301
		c1.04,4.638,1.169,9.482,1.684,14.238c0.616,5.705,1.505,11.401,1.743,17.123c0.39,9.42,0.203,18.863,0.563,28.284
		c0.159,4.163-2.067,7.334-3.476,10.864c-0.288,0.719-1.146,1.201-1.699,1.828c-0.406,0.464-0.916,0.937-1.077,1.494
		c-0.547,1.895-0.65,3.971-1.47,5.722c-7.227,15.42-15.856,30.018-26.683,43.192c-13.164,16.022-28.042,30.395-44.11,43.443
		c-6.016,4.886-13.003,8.598-19.672,12.639c-1.253,0.759-3.118,0.455-4.669,0.791c-6.447,1.389-12.824,3.261-19.337,4.154
		c-7.934,1.091-15.973,1.479-23.978,1.985c-9.169,0.579-18.378,0.531-27.376-1.394c-8.15-1.746-16.329-3.697-24.166-6.482
		c-14.148-5.027-26.648-13.096-37.952-22.925c-4.046-3.517-8.368-7.082-11.27-11.479c-6.966-10.552-17.299-18.207-24.007-28.903
		c-6.501-10.368-13.312-20.551-19.491-31.104c-3.12-5.33-5.141-11.3-7.653-16.984C410.367,633.725,409.976,632.775,409.605,631.905z
		 M497.967,626.29c0.462,11.953,3.601,23.867,14.486,32.891c12.155,10.073,24.91,18.49,41.037,20.582
		c17.587,2.279,33.194-2.262,47.046-13.117c4.087-3.204,8.162-6.473,11.888-10.075c3.566-3.449,6.999-7.14,9.887-11.155
		c2.652-3.688,4.168-8.184,6.785-11.904c3.313-4.71,5.229-9.832,6.18-15.388c1.267-7.398,1.402-14.765,0.155-22.25
		c-1.259-7.562-2.461-15.101-7.003-21.459c-3.16-4.428-6.357-9.11-10.515-12.47c-5.359-4.326-11.301-8.23-18.393-9.529
		c-2.211-0.406-4.425-0.795-6.647-1.135c-6.124-0.935-12.225-2.213-18.385-2.639c-4.842-0.336-9.974-0.402-14.583,0.857
		c-6.081,1.657-12.147,4.105-17.541,7.343c-6.802,4.085-13.494,8.711-19.189,14.187c-7.612,7.318-13.099,16.408-18.085,25.786
		C500.366,605.696,498.057,615.021,497.967,626.29z M641.707,382.951c0.48-13.394-3.258-25.351-11.668-35.833
		c-4.543-5.659-9.778-10.334-17.072-11.858c-7.572-1.581-14.986-0.745-22.241,2.042c-4.497,1.726-7.805,5.006-10.86,8.354
		c-3.148,3.446-5.211,7.863-8.221,11.46c-6.828,8.163-10.625,17.906-14.388,27.564c-2.375,6.095-2.756,12.761-2.533,19.464
		c0.28,8.494,4.439,15.289,8.684,21.997c4.206,6.646,10.673,10.643,17.934,13.646c9.813,4.06,19.374,6.182,29.611,1.125
		c8.941-4.416,16.335-10.271,21.097-19.113C638.581,409.676,640.926,396.489,641.707,382.951z"/>
	<path fill-rule="evenodd" clip-rule="evenodd" fill="#FFFFFF" d="M402.348,623.555c-3.204,0-6.491,0.414-9.631-0.089
		c-6.301-1.011-12.731-1.915-18.724-3.979c-7.693-2.648-15.167-6.077-22.441-9.754c-7.626-3.854-14.773-8.652-22.37-12.574
		c-7.726-3.988-14.313-9.444-20.744-15.093c-12.928-11.35-24.81-23.737-34.694-37.865c-8.467-12.099-16.88-24.339-21.405-38.582
		c-2.669-8.401-4.505-17.077-6.598-25.657c-2.9-11.894-3.729-24.048-3.915-36.219c-0.154-10.176-0.176-20.396,0.598-30.532
		c0.67-8.782,2.003-17.602,4.022-26.172c2.26-9.594,5.133-19.115,8.651-28.317c3.139-8.211,7.546-15.934,11.351-23.892
		c2.755-5.767,5.022-11.814,8.24-17.306c7.461-12.734,14.012-26.038,22.95-37.869c4.663-6.174,9.549-12.181,14.254-18.323
		c1.423-1.858,2.441-2.412,4.426-0.442c5.892,5.843,12.008,11.458,18.024,17.178c0.256,0.244,0.38,0.629,0.409,0.678
		c-2.71,2.664-5.702,4.92-7.822,7.814c-6.625,9.049-6.713,21.514,0.499,29.847c4.754,5.491,10.002,10.55,17.353,11.996
		c9.538,1.875,19.027,1.914,28.118-2.66c3.904-1.964,7.663-3.902,10.699-7.147c5.06-5.407,6.713-13.707,3.711-20.513
		c-2.577-5.845-5.883-11.089-11.357-14.845c-9.753-6.688-20.154-9.804-31.912-6.824c-2.424,0.614-4.278,0.175-6.26-1.685
		c-6.796-6.38-13.847-12.489-21.054-18.928c3.323-4.028,6.642-8.339,10.266-12.378c8.373-9.34,16.824-18.611,25.404-27.759
		c1.967-2.095,4.483-3.738,6.933-5.295c1.97-1.252,2.37-2.305-0.042-4.133c4.508-3.106,8.935-5.891,13.068-9.059
		c9.435-7.23,20.348-11.809,30.764-17.241c5.274-2.75,11.22-4.211,16.853-6.281c9.258-3.4,18.303-7.623,27.807-10.06
		c17.875-4.582,36.2-6.506,54.693-6.264c10.777,0.141,21.581,0.028,32.316,0.808c6.717,0.487,13.361,2.273,19.979,3.745
		c6.687,1.487,13.358,3.107,19.933,5.022c8.388,2.443,16.673,5.238,25.002,7.884c3.466,1.102,6.898,2.325,10.402,3.292
		c7.336,2.027,13.809,5.729,20.198,9.747c12.008,7.552,22.8,16.426,31.488,27.719c0.449,0.583,0.824,1.224,1.388,2.071
		c-2.466,0.677-1.767,2.929-2.515,4.22c-1.758,3.031-3.399,6.365-6.611,8.459c-2.341,1.526-3.82,3.832-4.646,6.653
		c-0.376,1.279-1.676,2.438-2.815,3.313c-2.101,1.617-2.739,3.293-0.672,5.756c-1.482,0.816-2.802,1.63-4.194,2.292
		c-2.505,1.19-2.647,2.172-1.346,4.568c0.621,1.143-0.051,2.979,0.559,4.136c1.08,2.047-0.283,2.324-1.485,3.114
		c-1.679,1.104-1.511,2.199,0.26,4.35c-0.295,1.63-0.556,3.061-0.812,4.492c-0.082,0.457,0.003,1.048-0.256,1.347
		c-1.834,2.127-3.682,4.25-5.661,6.239c-0.466,0.469-1.534,0.74-2.182,0.567c-9.714-2.603-19.577-2.503-29.495-1.873
		c-9.081,0.577-17.727,2.907-26.086,6.353c-1.658,0.682-3.077,1.94-4.927,3.141c-0.279-3.334-0.421-6.304-0.792-9.244
		c-1.883-14.879-8.5-27.161-21.162-35.391c-4.52-2.938-10.246-3.993-15.367-6.041c-9.807-3.923-19.107-1.662-26.8,4.273
		c-7.143,5.51-14.112,11.862-16.762,21.311c-1.364,4.864-1.195,9.682-0.324,14.53c0.685,3.806,1.467,7.603,2.434,11.345
		c0.51,1.969-0.427,4.031,1.071,6.107c0.561,0.776-1.584,3.435-2.371,5.29c-0.389,0.917-0.491,1.956-0.723,2.938
		c3.103,0.52,2.261,3.605,2.987,5.373c0.658,1.597-0.35,4.154-1.208,6.02c-0.764,1.666-1.833,2.825-0.566,4.852
		c0.577,0.924,0.129,2.733-0.302,3.987c-0.732,2.136-0.725,3.985,0.648,5.872c1.398,1.919,0.535,3.527-0.985,4.971
		c-1.547,1.469-3.987,2.792-4.353,4.532c-0.649,3.089-1.312,5.975-3.229,8.526c-0.229,0.304-0.14,1.168,0.135,1.48
		c1.568,1.779,1.147,3.708,0.471,5.597c-1.121,3.129-2.689,6.134-3.474,9.337c-0.773,3.159-0.737,6.507-1.197,9.752
		c-0.205,1.444-0.338,3.212-1.217,4.195c-4.161,4.648-4.953,10.723-6.793,16.244c-0.789,2.365-2.026,4.157-3.035,6.237
		c-1.803,3.716-2.943,7.792-4.009,11.811c-0.726,2.738-1.873,5.183-2.983,7.719c-2.07,4.722-7.171,8.244-6.265,14.313
		c0.126,0.85-0.925,2.165-1.778,2.808c-1.813,1.367-2.598,2.978-2.706,5.256c-0.234,5.001-1.843,9.493-4.858,13.642
		c-2.038,2.804-3.533,6.102-4.75,9.377c-1.688,4.54-4.295,8.815-4.375,13.902c-0.012,0.828-0.86,1.623-1.249,2.471
		c-1.247,2.711-2.508,5.417-3.672,8.166c-1.823,4.304-3.633,8.614-5.307,12.978c-0.435,1.131-0.763,2.604-0.404,3.673
		c0.699,2.078-0.006,3.062-1.66,4.181c-0.965,0.652-1.497,2.026-2.068,3.157c-0.772,1.523-1.333,3.154-2.104,4.679
		c-0.592,1.172-1.675,2.164-2.013,3.383c-1.485,5.346-3.821,10.341-4.807,15.98c-0.869,4.977-2.76,9.963-3.898,15.071
		c-0.846,3.797-3.125,7.256-4.549,10.949c-0.52,1.348-0.718,2.978-0.529,4.409c0.327,2.453,0.167,4.549-1.385,6.678
		c-0.859,1.177-0.501,3.22-1.324,4.449c-2.341,3.496-2.455,7.166-2.143,11.186c0.266,3.418-1.276,7.163-0.389,10.305
		c1.694,6.005-0.629,12.02,0.927,17.846C399.79,617.865,401.071,620.353,402.348,623.555z"/>
	<path fill-rule="evenodd" clip-rule="evenodd" fill="#FFFFFF" d="M1295.114,495.296c2.496,0.987,4.668,2.027,6.947,2.718
		c8.408,2.547,17.033,3.024,25.768,2.583c11.207-0.568,21.967-2.821,32.254-7.46c8.689-3.921,15.492-10.029,20.979-17.603
		c3.271-4.518,6.514-9.237,8.684-14.33c2.604-6.114,3.797-12.736,3.189-19.559c-0.264-2.963-0.145-5.981,0.061-8.958
		c0.654-9.421-1.064-18.437-4.947-26.948c-2.254-4.944-4.959-9.743-7.996-14.251c-3.551-5.271-7.488-10.318-11.611-15.159
		c-4.418-5.18-10.477-8.183-16.475-11.154c-3.871-1.916-7.586-4.341-11.66-5.609c-10.555-3.286-21.287-5.74-32.537-4.49
		c-7.965,0.886-15.988,1.26-23.939,2.243c-3.986,0.494-7.928,1.645-11.785,2.829c-22.371,6.863-40.967,19.573-56.609,36.803
		c-0.814,0.899-1.656,1.775-2.414,2.72s-1.424,1.959-2.27,3.137c-2.408-2.44-4.027-1.911-5.441,1.081
		c-0.662,1.399-2.133,2.15-3.535,0.144c-0.496-0.709-1.736-1.303-2.613-1.272c-3.684,0.127-5.529-2.197-7.316-4.856
		c-1.303-1.936-2.648-3.914-4.324-5.501c-0.971-0.917-2.637-1.095-4.777-1.9c0.668-2.242,1.227-4.938,2.297-7.412
		c0.77-1.775,1.328-3.158-0.031-4.898c-0.461-0.59-0.316-1.783-0.205-2.67c0.611-4.853,1.404-9.685,1.912-14.547
		c0.211-2.023-0.24-4.107-0.197-6.16c0.061-2.962,0.213-5.929,0.48-8.881c0.246-2.736-1.168-5.769,1.508-8.153
		c0.371-0.329,0.143-2.104-0.365-2.503c-1.666-1.308-1.594-2.786-1.164-4.547c0.172-0.703,0.227-1.657-0.115-2.224
		c-2.469-4.081-2.088-8.6-1.506-12.884c0.613-4.505-1.705-8.143-2.383-12.226c-0.211-1.274-0.248-2.578-0.488-3.846
		c-0.252-1.332-0.641-2.636-0.992-3.946c-0.693-2.59-1.621-5.142-2.055-7.774c-0.693-4.212-0.801-8.534-1.662-12.704
		c-0.619-3.006-2.109-5.827-3.104-8.767c-0.258-0.763-0.352-1.752-0.092-2.488c0.916-2.609,0.158-4.776-1.557-6.961
		c1.809-1.34,3.105-2.796,0.367-4.588c-0.346-0.225-0.424-1.496-0.123-1.96c1.766-2.758,1.109-5.327-0.436-7.878
		c7.48-7.021,15.982-11.763,26.068-13.842c4.547-0.937,8.785-3.279,13.287-4.53c7.977-2.216,16.021-4.188,24.08-6.075
		c12.486-2.922,25.158-1.937,37.803-1.655c14.357,0.318,28.355,2.884,42.145,6.583c8.625,2.316,17.109,5.186,25.604,7.98
		c13.234,4.355,26.119,9.596,38.475,16.048c10.518,5.494,20.922,11.202,31.322,16.917c7.074,3.888,12.91,9.34,18.672,15.089
		c-4.037,3.812-7.957,7.46-11.816,11.175c-2.303,2.224-4.561,4.504-6.744,6.851c-1.35,1.452-2.328,2.086-4.518,0.892
		c-5.77-3.146-11.811-5.842-18.59-5.87c-1.32-0.005-2.693,0.53-3.957,1.034c-6.303,2.504-11.744,6.197-16.619,11.008
		c-8.314,8.211-6.391,23.255,0.236,30.184c9.08,9.49,20.006,14.991,33.162,12.975c4.812-0.737,9.717-4.288,13.438-7.773
		c3.871-3.627,6.713-8.533,9.344-13.248c1.945-3.485,0.805-7.275-1.043-10.811c-2.508-4.814-5.619-9.138-9.752-12.639
		c-1.766-1.497-1.695-2.737-0.209-4.178c5.412-5.253,10.83-10.5,16.277-15.718c1.076-1.032,2.283-1.933,3.832-3.232
		c2.705,3.513,5.473,6.813,7.916,10.338c8.756,12.623,17.887,25.023,25.961,38.073c8.312,13.437,15.939,27.358,21.053,42.434
		c4.17,12.304,7.818,24.764,9.535,37.693c1.236,9.322,2.768,18.629,3.439,27.995c0.553,7.695,0.107,15.47-0.02,23.206
		c-0.162,9.863-2.445,19.395-5.178,28.786c-1.135,3.904-2.963,7.692-4.996,11.235c-3.305,5.757-6.982,11.229-9.547,17.472
		c-2.184,5.315-5.594,10.204-8.926,14.957c-5.127,7.32-10.646,14.364-16.006,21.521c-6.008,8.026-12.586,15.486-20.523,21.715
		c-7.42,5.827-14.52,12.078-22.049,17.759c-10.225,7.717-20.924,14.834-32.838,19.65c-8.082,3.271-16.578,5.516-24.875,8.252
		c-11.672,3.852-23.686,6.215-35.826,7.821c-5.49,0.728-11.104,0.895-16.641,0.709c-2.369-0.08-5.012-1.281-6.932-2.753
		c-1.664-1.28-2.486-3.661-3.68-5.553c0.252-0.179,0.504-0.355,0.758-0.531c0.912,0.521,1.82,1.046,2.73,1.569
		c0.182-0.179,0.363-0.355,0.545-0.533c-0.582-0.779-1.166-1.563-1.688-2.265c0.408-3.501,2.984-6.765,0.748-10.497
		c-0.285-0.47,0.119-1.453,0.377-2.134c1.014-2.67,2.096-5.318,3.168-7.969c0.055-0.135,0.379-0.28,0.365-0.311
		c-1.49-2.902,0.811-5.259,1.115-7.894c0.402-3.43,0.641-6.878,0.973-10.317c0.725-7.417,1.988-14.83,2.062-22.255
		c0.084-8.843-0.297-17.771-1.492-26.524c-1.055-7.7-3.586-15.189-5.311-22.81C1296.603,504.312,1295.981,500.055,1295.114,495.296z
		"/>
	<path fill-rule="evenodd" clip-rule="evenodd" fill="#FFFFFF" d="M881.167,439.477c0.223-0.907,0.9-2.04,0.628-2.85
		c-1.095-3.239-2.509-6.37-3.751-9.562c-0.438-1.124-1.156-2.371-0.998-3.455c0.805-5.496,1.224-11.171,2.989-16.372
		c1.952-5.749,5.779-10.758,12.583-11.063c2.989-0.134,6.103,1.438,9.084,2.453c2.48,0.843,4.933,1.852,7.256,3.055
		c7.412,3.832,10.773,10.259,11.051,18.354c0.422,12.337-1.467,24.472-3.492,36.591c-1.943,11.635-3.615,23.315-5.664,34.931
		c-1.668,9.44-3.68,18.818-5.605,28.211c-2.232,10.889-4.605,21.748-6.797,32.646c-2.449,12.179-4.945,24.353-7.088,36.589
		c-2.326,13.283-4.616,26.556-4.576,40.176c0.016,5.437,0.566,10.604,1.564,15.876c0.406,2.147-0.392,4.523-0.707,7.383
		c3.316,4.039,5.99,8.964,6.287,15.537c0.184,4.102-1.324,6.331-3.829,8.496c-3.448,2.976-7.732,4.515-12.072,3.207
		c-5.415-1.63-10.728-3.847-15.762-6.442c-6.604-3.402-9.948-9.325-11.444-16.562c-1.103-5.337-0.818-10.497,0.648-15.618
		c1.106-3.861,2.248-7.772,3.941-11.395c3.633-7.758,7.627-15.347,11.479-23.001c1.637-3.252,3.368-6.463,4.858-9.782
		c0.279-0.622-0.381-1.666-0.607-2.519c-0.847,0.357-2.111,0.475-2.475,1.11c-2.996,5.229-5.957,10.486-8.67,15.866
		c-4.754,9.42-9.703,18.742-17.328,26.18c-4.174,4.071-8.542,8.123-14.607,9.535c-2.249,0.524-4.504,1.418-6.494,2.588
		c-5.754,3.387-12.261,3.531-18.541,4.664c-2,0.36-4.013,0.685-6.034,0.884c-0.807,0.08-1.652-0.222-2.49-0.35
		c-0.142,0.374-0.332,0.875-0.235,0.624c-2.049,0.391-3.498,0.835-4.967,0.921c-5.349,0.317-10.793,1.229-16.04,0.593
		c-8.516-1.034-16.764-3.722-24.243-7.994c-2.657-1.518-5.474-2.684-8.053-4.291c-0.552-0.348-0.816-1.153-1.196-1.725
		c-0.71-0.072-1.976,0.141-2.857-0.342c-7.434-4.085-13.823-9.203-17.976-16.931c-1.677-3.121-2.498-5.887-1.886-9.427
		c0.542-3.13,0.637-6.49,0.134-9.619c-1.261-7.835-2.797-15.639-4.548-23.383c-1.825-8.067-3.927-16.08-6.097-24.062
		c-3.74-13.759-8.242-27.239-15.509-39.616c-5.574-9.492-10.563-19.258-14.343-29.621c-0.31-0.848-1.464-1.387-3.164-2.721
		c1.831-1.475,3.64-2.974,5.496-4.415c4.871-3.777,8.099-8.864,11.315-13.987c4.847-7.719,9.999-15.254,14.632-23.095
		c5.163-8.737,10.918-17.342,14.479-26.738c2.813-7.421,8.766-9.899,14.223-13.513c9.312-6.166,19.703-9.682,30.688-11.585
		c10.692-1.854,21.456-2.276,32.209-1.212c7.476,0.739,14.917,2.049,22.292,3.515c6.438,1.281,12.947,2.633,19.095,4.862
		c8.581,3.112,15.94,8.5,22.924,14.358c5.138,4.312,10.211,8.658,13.901,14.367C876.79,432.911,878.858,435.984,881.167,439.477z
		 M835.551,498.103c-1.117-5.216-2.337-13.056-4.536-20.609c-2.404-8.262-6.234-15.881-15.448-18.662
		c-5.056-1.527-10.154-2.982-15.323-4.046c-6.544-1.346-13.115-0.602-19.614,0.709c-5.76,1.161-11.385,2.831-16.147,6.37
		c-9.632,7.155-15.218,17.332-19.53,28.126c-2.214,5.542-3.349,11.583-4.417,17.5c-1.531,8.474-0.362,16.929,1.207,25.317
		c1.196,6.398,3.417,12.311,8.023,17.105c2.464,2.562,4.864,4.726,8.704,5.75c3.651,0.972,6.583,4.373,10.111,6.141
		c5.986,3.003,12.126,5.898,19.167,3.365c0.764-0.275,1.689-0.106,2.539-0.133c1.745-0.052,3.387,0.092,4.978-1.27
		c1.094-0.937,2.931-1.026,4.451-1.44c3.577-0.972,7.439-0.804,10.517-3.576c8.021-7.23,14.418-15.437,18.7-25.534
		C833.378,522.73,835.03,511.899,835.551,498.103z"/>
	<path fill-rule="evenodd" clip-rule="evenodd" fill="#FFFFFF" d="M1191.634,521.252c0.588,8.202-6.172,10.323-11.102,13.595
		c-4.184,2.776-8.967,4.698-13.607,6.717c-8.352,3.633-17.018,5.879-26.254,5.694c-7.088-0.141-14.186,0.203-21.275,0.146
		c-15.814-0.123-28.932-6.148-38.945-18.456c-2.787-3.425-5.525-7.244-3.641-12.062c0.826-2.109,2.402-3.95,3.771-5.812
		c0.713-0.975,1.838-1.652,2.553-2.628c0.455-0.62,0.496-1.545,0.723-2.331c-0.947-0.188-2.203-0.859-2.791-0.484
		c-6.24,4.001-10.648,10.097-9.154,17.376c0.768,3.762,3.57,7.478,6.338,10.369c3.816,3.99,8.178,7.646,12.852,10.569
		c3.885,2.43,8.533,3.665,12.895,5.291c1.406,0.523,3.158,0.2,3.461,2.446c0.053,0.381,1.85,0.959,2.613,0.721
		c1.498-0.473,2.352-0.177,3.396,0.968c1.73,1.892,6.057,1.997,7.766,0.74c2.479,1.273,4.742,2.45,7.025,3.584
		c0.188,0.091,0.631-0.036,0.787-0.211c3.064-3.465,6.998-2.194,10.77-2.142c1.502,0.021,3.023-0.682,4.52-1.104
		c2.518-0.71,5.064-2.127,7.523-1.977c1.918,0.118,4.016,1.867,5.521,3.399c7.48,7.614,12.668,16.711,15.502,26.931
		c1.465,5.286,1.617,10.931,2.451,16.4c0.51,3.347,1.504,6.644,1.721,10.002c0.443,6.852-1.855,13.148-5.229,18.931
		c-4.904,8.406-12.135,14.483-19.941,20.265c-8.588,6.359-17.975,10.758-28.121,12.949c-8.508,1.837-17.438,1.708-26.176,2.502
		c-9.441,0.86-18.814,0.033-27.602-3.285c-11.781-4.453-23.238-9.678-33.609-17.133c-7.691-5.527-15.178-11.171-21.48-18.277
		c-1.469-1.66-3.117-3.167-4.52-4.877c-0.455-0.554-0.588-1.547-0.535-2.317c0.92-14.119,2.164-28.18,5.596-41.984
		c2.039-8.207,3.426-16.574,5.213-24.843c2.703-12.489,5.592-24.94,8.234-37.441c2.18-10.31,4.334-20.63,6.098-31.015
		c1.891-11.138,3.357-22.345,4.924-33.539c1.303-9.316,2.475-18.654,3.707-27.994c1.75,0.996,2.328,0.493,2.309-1.755
		c-0.066-8.472,2.717-15.728,10.162-20.392c5.441-3.408,10.836-7.348,16.82-9.332c10.58-3.506,21.539-5.94,32.443-8.358
		c6.404-1.421,12.986-2.191,19.531-2.816c10.791-1.028,20.98,1.62,30.732,6.034c11.227,5.08,21.357,11.922,31.018,19.524
		c5.703,4.488,9.973,10.117,14.352,15.845c7.107,9.291,8.053,20.08,8.73,30.876c0.848,13.522,0.203,27.086-3.449,40.236
		c-2.506,9.026-5.52,17.929-8.766,26.718C1196.774,519.458,1195.323,522.428,1191.634,521.252z"/>
	<path fill-rule="evenodd" clip-rule="evenodd" fill="#FFFFFF" d="M1275.599,461.417c-2.613-2.178-5.918-1.256-6.205,1.473
		c-0.305,2.926,0.02,5.956,0.387,8.9c0.268,2.114,1.045,4.166,1.621,6.24c0.539,1.952-0.033,4.363,2.818,5.312
		c0.775,0.259,0.932,2.165,1.516,3.239c0.816,1.507,1.715,2.975,2.676,4.396c1.277,1.884,2.588,3.749,3.99,5.544
		c1.404,1.8,3.02,3.441,4.387,5.268c0.988,1.322,1.732,2.829,2.555,4.267c0.801,1.406,0.988,3.354,3.264,3.401
		c0.295,0.007,0.754,0.587,0.84,0.969c2.332,10.351,6.184,20.307,6.809,31.105c0.846,14.675-0.104,29.223-2.676,43.59
		c-1.631,9.122-4.473,18.065-7.328,26.907c-1.096,3.396-3.836,6.23-5.609,9.438c-0.908,1.646-1.002,3.801-2.072,5.287
		c-1.48,2.056-3.326,3.996-5.398,5.446c-2.635,1.847-5.617,3.213-8.502,4.686c-11.451,5.84-23.188,10.456-36.461,8.187
		c-1.014-0.174-2.094-0.342-2.965-0.831c-0.631-0.358-0.969-1.242-1.131-1.465c-2.074-0.341-4.344-0.179-6.035-1.086
		c-6.945-3.722-14.15-7.185-20.422-11.865c-6.143-4.581-10.938-10.938-16.957-15.718c-3.688-2.93-2.381-6.616-3.248-9.904
		c-2.154-8.177-3.299-16.64-5.777-24.704c-3.514-11.44-10.082-21.173-19.027-29.219c-0.125-0.112-0.162-0.323-0.379-0.775
		c4.549-1.646,9.15-3.087,13.566-4.962c8.445-3.576,16.572-7.938,23.164-14.323c3.496-3.385,6.434-7.803,8.328-12.299
		c5.148-12.236,9.404-24.884,10.936-38.125c1.502-13.029,2.029-26.105-0.018-39.247c-1.088-6.986-2.926-13.566-5.879-19.9
		c-0.623-1.338-1.527-2.545-1.586-3.466c2.035-2.964,4.205-5.847,6.08-8.91c6.846-11.188,16.359-19.825,26.854-27.313
		c14.086-10.056,29.562-17.452,46.82-19.953c10.803-1.566,21.805-2.506,32.705-2.405c6.607,0.062,13.203,2.611,19.781,4.126
		c1.734,0.399,3.494,0.919,5.064,1.729c1.383,0.713,2.52,1.907,3.887,2.988c1.299,0.335,2.975,0.579,4.502,1.2
		c6.621,2.7,12.695,6.447,17.301,11.884c3.604,4.252,6.65,9.08,9.32,13.991c3.176,5.847,5.963,11.945,8.412,18.135
		c3.139,7.944,4.465,16.178,1.854,24.639c-0.145,0.468-0.092,1.094,0.098,1.553c2.615,6.314,1.643,12.554-0.617,18.642
		c-3.496,9.419-9.113,17.459-16.361,24.424c-6.1,5.857-13.568,9.06-21.439,11.573c-14.203,4.538-28.768,4.437-43.078,1.646
		c-6.596-1.286-13.408-3.933-18.469-9.38c-2.986-3.214-6.918-5.569-9.783-8.867c-2.145-2.466-3.586-5.699-4.738-8.813
		C1272.056,465.603,1272.286,462.87,1275.599,461.417z"/>
	<path fill-rule="evenodd" clip-rule="evenodd" fill="#FFFFFF" d="M936.106,289.045c0-7.434,0.203-15.496-0.098-23.542
		c-0.121-3.312-1.02-6.479-0.221-9.938c2.27-9.806,7.293-17.839,15.35-23.651c4.455-3.213,9.463-1.256,13.957,0.884
		c11.77,5.61,17.229,16.206,21.104,27.762c2.598,7.742,3.059,15.847,2.975,24.039c-0.07,6.968-1.523,13.603-2.783,20.375
		c-0.912,4.904,0.027,10.141,0.045,15.231c0.035,10.292,0.307,20.598-0.1,30.875c-0.309,7.791-1.561,15.544-2.316,23.32
		c-0.664,6.852-1.527,13.703-1.781,20.572c-0.475,12.854-1.922,25.567-4.045,38.246c-1.838,10.969-3.158,22.023-4.736,33.033
		c-1.473,10.263-2.967,20.523-4.484,30.78c-2.238,15.094-4.33,30.212-6.828,45.262c-1.541,9.275-3.803,18.43-5.598,27.662
		c-1.275,6.568-2.338,13.178-3.459,19.774c-1.342,7.892-2.705,15.78-3.949,23.688c-1.773,11.252-3.443,22.521-5.17,33.778
		c-1.568,10.241-3.26,20.463-4.67,30.725c-0.402,2.922,0.436,6.033-0.07,8.921c-1.814,10.342-2.992,20.892-7.229,30.625
		c-2.092,4.804-4.74,9.412-7.566,13.831c-2.236,3.496-5.781,5.705-9.834,6.699c-6.039,1.482-12.152,3.182-18.413,2.152
		c-4.548-0.747-9.058-2.006-13.419-3.512c-4.02-1.392-5.91-5.228-7.742-8.683c-6.366-12.016-8.105-24.568-3.631-37.675
		c0.213-0.624,0.407-1.257,0.674-1.859c2.164-4.916,2.168-4.659,7.48-4.647c8.402,0.015,14.323-3.285,18.092-10.652
		c0.533-1.045,0.832-2.448,0.642-3.585c-1.007-6.011-1.417-12.129-4.813-17.6c-1.229-1.977-0.699-4.97-1.34-7.403
		c-3.064-11.669-1.762-23.446-0.542-35.118c0.937-8.964,2.985-17.812,4.61-26.7c1.828-10.003,3.647-20.008,5.633-29.979
		c1.725-8.673,3.834-17.271,5.49-25.957c2.658-13.966,5.07-27.978,7.605-41.965c1.742-9.618,3.484-19.238,5.291-28.844
		c2.379-12.645,4.068-25.366,3.072-38.247c-0.43-5.558-2.412-10.669-5.98-15.239c-3.031-3.88-3.477-8.984-2.754-13.522
		c2.227-14.023,4.9-27.988,7.814-41.889c2.184-10.43,5.014-20.723,7.531-31.083c0.289-1.188,0.285-2.462,0.678-3.605
		c0.422-1.22,1.172-2.327,1.748-3.497c0.49-0.999,1.018-1.989,1.398-3.029c3.59-9.775,7.164-19.556,10.695-29.352
		c0.201-0.565-0.021-1.283-0.043-1.93c-0.553,0.329-1.367,0.523-1.613,1.008c-1.807,3.509-3.496,7.078-5.23,10.624
		C936.96,287.385,936.354,288.551,936.106,289.045z"/>
	<path fill-rule="evenodd" clip-rule="evenodd" fill="#FFFFFF" d="M992.114,268.569c3.145,0.589,3.064-1.199,2.609-3.516
		c-2.188-11.1,1.711-20.583,8.287-29.138c2.645-3.442,6.764-4.283,10.971-3.822c13.176,1.443,20.867,10.128,26.9,20.793
		c4.408,7.795,6.379,16.378,7.625,25.176c2.068,14.562,2.199,29.182,1.055,43.793c-0.816,10.426-1.924,20.849-3.449,31.193
		c-1.984,13.45-3.654,26.908-4.543,40.484c-0.404,6.177-1.953,12.271-2.771,18.431c-0.324,2.469-0.029,5.016-0.105,7.523
		c-0.119,3.77-0.09,7.564-0.521,11.302c-1.326,11.518-2.738,23.03-4.324,34.516c-1.145,8.313-2.35,16.633-3.998,24.858
		c-3.703,18.464-7.664,36.876-11.584,55.299c-2.549,11.978-5.66,23.857-7.691,35.921c-1.949,11.606-2.902,23.386-4.148,35.104
		c-0.438,4.123-0.377,8.296-0.689,12.435c-0.109,1.446-0.652,2.856-1,4.284c-0.086,0.354-0.246,0.706-0.252,1.064
		c-0.201,8.046-0.336,16.094-0.584,24.137c-0.227,7.276-0.377,14.564-0.91,21.821c-0.969,13.252-2.035,26.502-3.375,39.722
		c-0.932,9.218-6.43,14.841-15.084,17.79c-6.865,2.34-13.766,3.955-21.07,3.017c-4.057-0.522-7.592-1.889-10.102-5.415
		c-4.168-5.858-8.037-11.807-9.672-18.982c-1.383-6.074-1.402-12.165-0.711-18.27c0.34-2.993-0.504-6.247,1.824-8.931
		c0.475-0.548,0.449-1.992,0.078-2.737c-2.236-4.479-1.725-9.092-1.031-13.774c2.514-16.976,4.801-33.984,7.496-50.931
		c2.947-18.518,6.188-36.99,9.434-55.459c1.221-6.94,2.994-13.782,4.203-20.725c1.131-6.487,1.797-13.053,2.75-19.571
		c1.361-9.315,2.816-18.615,4.195-27.926c0.896-6.056,1.674-12.131,2.609-18.178c1.188-7.629,2.551-15.231,3.713-22.865
		c1.49-9.769,2.904-19.55,4.256-29.34c1.006-7.274,2.033-14.552,2.734-21.858c0.783-8.157,1.131-16.356,1.811-24.524
		c0.686-8.263,1.617-16.504,2.318-24.765c1.342-15.812,1.307-31.647,0.738-47.496c-0.094-2.687,0.309-5.523,1.133-8.081
		c1.441-4.479,2.094-8.94,1.67-13.623c-0.148-1.665,0.391-3.387,0.295-5.064C992.938,277.766,992.503,273.3,992.114,268.569z"/>
	<path fill-rule="evenodd" clip-rule="evenodd" fill="#FFFFFF" d="M350.046,287.497c7.298-4.08,18.816-2.946,25.125,2.566
		c0.422,0.369,0.995,1.102,1.279,1.007c4.463-1.473,4.901,2.552,6.158,4.808c3.154,5.658,4.461,11.594,0.786,17.672
		c-2.657,4.396-6.753,6.998-11.261,9.009c-5.927,2.643-12.133,4.094-18.668,3.362c-1.05-0.117-2.024-0.941-3.03-1.443
		c-0.876-0.437-1.761-1.28-2.621-1.255c-7.615,0.223-15.4-10.236-13.374-18.643c0.984-4.08,1.91-8.338,5.146-11.401
		c1.602-1.518,3.51-2.711,5.46-4.189c4.334,5.215,7.676,10.506,10.263,16.278c0.499,1.114,0.644,2.514,1.421,3.338
		c0.736,0.779,2.253,1.558,3.134,1.307c1.521-0.434,1.844-1.77,0.913-3.384C357.172,300.276,353.678,293.96,350.046,287.497z"/>
	<path fill-rule="evenodd" clip-rule="evenodd" fill="#FFFFFF" d="M1400.497,314.914c4.684,3.062,9.061,5.764,10.418,11.155
		c1.623,6.449-3.348,14.919-10.33,16.968c-12.184,3.574-29.967-8.276-33.092-17.361c-2.287-6.654-0.354-10.161,4.664-13.924
		c7.172-5.379,17.787-4.864,24.666,0.87c0.475,0.394,0.584,1.872,0.236,2.495c-1.84,3.281-3.812,6.493-5.881,9.634
		c-0.822,1.25-1.086,2.49,0.277,3.054c0.631,0.262,2.248-0.617,2.717-1.399C1396.339,322.794,1398.263,319.036,1400.497,314.914z"/>
	<path fill-rule="evenodd" clip-rule="evenodd" fill="#FFFFFF" d="M1370.085,306.365c3.033-2.354,6.053-4.726,9.113-7.046
		c0.668-0.506,1.512-0.772,2.219-1.235c5.896-3.861,11.799-2.585,17.672,0.009c1.885,0.833,3.66,1.915,5.535,2.774
		c1.785,0.818,2.389,1.623,0.703,3.274c-1.602,1.567-2.689,4.392-4.465,4.838c-1.709,0.431-3.984-1.528-6.049-2.336
		c-6.02-2.354-12.084-4.408-18.559-1.645c-1.834,0.783-3.666,1.579-5.498,2.369C1370.534,307.032,1370.308,306.699,1370.085,306.365
		z"/>
	<path fill-rule="evenodd" clip-rule="evenodd" fill="#FFFFFF" d="M1415.312,332.662c0.141-1.641,0.383-3.282,0.396-4.924
		c0.049-5.418-3.205-9.071-6.895-12.418c-1.244-1.127-2.795-1.918-4.021-3.057c-0.457-0.423-0.762-1.604-0.498-2.098
		c0.924-1.725,1.984-3.433,3.305-4.862c0.471-0.51,2.156-0.639,2.721-0.205c5.074,3.902,8.32,9.211,10.5,15.096
		c0.588,1.588,0.215,3.853-0.453,5.511c-1.029,2.555-2.695,4.854-4.088,7.262C1415.954,332.865,1415.636,332.763,1415.312,332.662z"
		/>
	<path fill-rule="evenodd" clip-rule="evenodd" fill="#FFFFFF" d="M329.406,311.028c-4.128-5.284-3.708-11.096-2.291-17.085
		c1.171-4.952,4.567-8.097,8.45-10.897c3.14-2.263,4.661,0.402,6.851,2.459C332.604,291.223,329.785,300.453,329.406,311.028z"/>
	<path fill-rule="evenodd" clip-rule="evenodd" fill="#FFFFFF" d="M362.159,280.499c-4.842,1.115-9.539,2.464-14.33,3.132
		c-1.36,0.19-2.998-1.601-4.665-2.575C346.473,278.11,359.307,278.013,362.159,280.499z"/>
	<path fill-rule="evenodd" clip-rule="evenodd" fill="#FFFFFF" d="M1193.954,629.134c-1.268,0.343-2.535,0.689-3.965,1.076
		c0.291-1.524,0.516-2.691,0.811-4.241c1.184,0.839,2.242,1.589,3.303,2.337C1194.054,628.583,1194.003,628.858,1193.954,629.134z"
		/>
	<path fill-rule="evenodd" clip-rule="evenodd" fill="#FFFFFF" d="M846.015,648.315c0.132,2.312,0.264,4.623,0.402,7.06
		c-0.5,0-1.03,0-1.229,0c0-2.44,0-4.803,0-7.163C845.464,648.247,845.739,648.282,846.015,648.315z"/>
	<path fill-rule="evenodd" clip-rule="evenodd" fill="#FFFFFF" d="M1169.841,637.682c2.205-0.806,4.41-1.609,6.613-2.414
		c0.113,0.278,0.227,0.552,0.34,0.828c-2.17,0.893-4.342,1.788-6.514,2.68C1170.134,638.41,1169.989,638.046,1169.841,637.682z"/>
	<path fill-rule="evenodd" clip-rule="evenodd" fill="#FFFFFF" d="M1633.728,229.089c4.656,3.544,9.09,7.666,10.352,13.34
		c1.875,8.431,1.254,18.324-8.33,23.162c-12.945,6.535-32.828,0.003-36.723-17.039c-0.91-3.984,0.453-7.544,2.873-10.545
		c5.021-6.214,11.232-10.583,19.543-10.986c3.51-0.17,6.756,0.536,8.904,3.794c0.32,0.485,1.545,1.006,1.705,0.849
		C1632.694,231.034,1633.085,230.145,1633.728,229.089z"/>
	<path fill-rule="evenodd" clip-rule="evenodd" fill="#FFFFFF" d="M197.465,216.131c6.997,0.808,13.042,3.077,18.495,7.071
		c1.958,1.433,2.137,3.108,1.509,5.448c-1.512,5.644-4.743,9.718-9.446,13.154c-6.364,4.652-17.275,2.675-22.152-2.186
		c-1.395-1.392-2.599-2.975-3.974-4.39c-5.195-5.347-1.207-13.965,3.747-15.886C189.43,217.876,193.513,217.174,197.465,216.131z"/>
	<path fill-rule="evenodd" clip-rule="evenodd" d="M497.967,626.29c0.09-11.27,2.399-20.594,7.123-29.476
		c4.986-9.378,10.473-18.468,18.085-25.786c5.696-5.476,12.387-10.102,19.189-14.187c5.394-3.237,11.46-5.686,17.541-7.343
		c4.609-1.26,9.741-1.193,14.583-0.857c6.16,0.426,12.262,1.704,18.385,2.639c2.222,0.34,4.436,0.729,6.647,1.135
		c7.092,1.299,13.034,5.203,18.393,9.529c4.157,3.359,7.354,8.042,10.515,12.47c4.542,6.358,5.744,13.896,7.003,21.459
		c1.247,7.485,1.111,14.852-0.155,22.25c-0.951,5.556-2.867,10.678-6.18,15.388c-2.616,3.721-4.133,8.216-6.785,11.904
		c-2.888,4.016-6.32,7.706-9.887,11.155c-3.726,3.603-7.801,6.871-11.888,10.075c-13.853,10.855-29.459,15.396-47.046,13.117
		c-16.127-2.092-28.881-10.509-41.037-20.582C501.568,650.157,498.43,638.243,497.967,626.29z M569.572,552.702
		c-5.42-0.785-10.244,0.698-14.952,2.785c-0.686,0.302-1.389,0.611-2.118,0.769c-10.774,2.319-18.472,9.599-26.072,16.718
		c-7.237,6.783-12.509,15.164-16.926,24.058c-2.843,5.725-6.45,11.217-6.824,17.792c-0.352,6.182-0.792,12.49,0.054,18.57
		c0.65,4.678,2.584,9.503,5.14,13.501c2.678,4.191,6.641,7.617,10.282,11.13c8.912,8.6,19.271,14.682,31.51,17.216
		c6.512,1.349,13.038,1.798,19.69,0.684c10.134-1.699,19.478-5.192,27.647-11.47c4.564-3.51,8.897-7.318,13.357-10.963
		c6.211-5.073,9.175-12.285,12.716-19.131c0.843-1.632-0.273-5.117,3.636-4.124c0.155,0.041,0.544-0.49,0.69-0.815
		c0.813-1.802,1.827-3.557,2.33-5.446c2.059-7.716,2.671-15.5,1.836-23.532c-1.482-14.274-5.881-27.049-17.665-36.035
		c-4.247-3.24-9.076-6.377-14.131-7.756C589.916,553.961,579.792,551.91,569.572,552.702z"/>
	<path fill-rule="evenodd" clip-rule="evenodd" d="M641.707,382.951c-0.781,13.538-3.126,26.725-9.657,38.848
		c-4.762,8.843-12.156,14.697-21.097,19.113c-10.238,5.057-19.798,2.935-29.611-1.125c-7.26-3.003-13.728-6.999-17.934-13.646
		c-4.245-6.708-8.403-13.503-8.684-21.997c-0.223-6.703,0.157-13.369,2.533-19.464c3.763-9.658,7.56-19.401,14.388-27.564
		c3.01-3.597,5.072-8.015,8.221-11.46c3.055-3.348,6.363-6.628,10.86-8.354c7.255-2.787,14.669-3.624,22.241-2.042
		c7.294,1.524,12.529,6.2,17.072,11.858C638.449,357.6,642.187,369.558,641.707,382.951z M580.26,353.243
		c-0.397,1.05-0.835,2.604-1.558,4.013c-1.074,2.092-2.467,4.022-3.52,6.123c-4.79,9.559-8.145,19.644-10.389,30.068
		c-1.385,6.438-2.485,12.921-1.512,19.613c1.03,7.07,4.432,12.927,9.53,17.479c3.19,2.849,7.464,4.618,11.462,6.398
		c6.56,2.92,13.316,4.93,20.618,2.473c11.206-3.771,20.019-10.547,24.998-21.312c5.011-10.833,7.761-22.354,7.934-34.407
		c0.097-6.822-0.324-13.576-2.766-19.992c-2.858-7.508-7.531-13.952-13.233-19.48c-2.898-2.81-6.478-4.825-10.896-5.458
		c-6.187-0.887-12.122,0.046-17.886,1.657c-3.343,0.934-6.62,2.829-8.209,6.68C583.963,349.204,582.065,350.885,580.26,353.243z"/>
	<path fill-rule="evenodd" clip-rule="evenodd" d="M835.551,498.103c-0.521,13.797-2.173,24.628-6.619,35.113
		c-4.282,10.098-10.68,18.304-18.7,25.534c-3.077,2.772-6.939,2.604-10.517,3.576c-1.52,0.414-3.357,0.504-4.451,1.44
		c-1.59,1.361-3.232,1.218-4.978,1.27c-0.85,0.026-1.775-0.143-2.539,0.133c-7.041,2.533-13.181-0.362-19.167-3.365
		c-3.529-1.768-6.46-5.169-10.111-6.141c-3.839-1.024-6.24-3.188-8.704-5.75c-4.606-4.795-6.828-10.707-8.023-17.105
		c-1.569-8.389-2.738-16.844-1.207-25.317c1.068-5.917,2.203-11.958,4.417-17.5c4.312-10.794,9.897-20.971,19.53-28.126
		c4.763-3.539,10.388-5.209,16.147-6.37c6.499-1.311,13.07-2.055,19.614-0.709c5.168,1.063,10.267,2.519,15.323,4.046
		c9.214,2.781,13.044,10.4,15.448,18.662C833.214,485.047,834.434,492.887,835.551,498.103z M831.522,504.834
		c0.602-9.01-1.834-16.835-3.96-24.616c-2.209-8.079-5.014-15.678-14.604-18.715c-5.732-1.813-11.448-3.005-17.301-3.755
		c-6.884-0.882-13.552,0.892-20.042,2.838c-3.431,1.028-6.784,2.868-9.684,5.006c-5.855,4.314-9.912,10.255-13.214,16.668
		c-5.184,10.068-8.61,20.631-8.788,32.092c-0.133,8.571,1.154,16.93,3.803,25.059c1.634,5.013,4.712,9.154,9.325,11.669
		c6.404,3.486,13.04,6.558,19.628,9.701c4.898,2.336,13.895,1.229,18.218-2.014c0.338-0.256,0.994-0.051,1.488-0.142
		c3.093-0.573,6.597-0.438,9.195-1.899c7.406-4.172,12.635-10.824,16.567-18.137C827.903,527.903,831.685,516.479,831.522,504.834z"
		/>
	<path fill-rule="evenodd" clip-rule="evenodd" d="M1088.692,442.136c0.406,0.065,0.922-1.919,1.699-2.592
		c6.84-5.921,14.83-9.181,23.869-9.245c4.188-0.031,8.479,0.485,12.541,1.489c2.473,0.609,4.982,2.242,6.816,4.078
		c5.641,5.659,8.479,12.615,8.043,20.7c-0.156,2.901-0.551,5.798-0.992,8.672c-1.316,8.584-7.213,12.969-14.963,14.517
		c-6.023,1.205-12.328,1.14-18.518,1.326c-9.279,0.281-14.785-5.567-19.465-12.55c-3.287-4.906-5.26-10.182-3.971-16.569
		 M1116.61,435.442c-5.193-0.788-10.459,0.779-15.652,2.582c-6.994,2.428-10.637,8.08-13.338,14.489
		c-0.41,0.976-0.41,2.247-0.244,3.325c1.23,7.884,5.131,14.253,11.342,19.179c1.045,0.831,2.494,1.255,3.824,1.611
		c5.748,1.543,11.551,0.951,17.377,0.464c12.344-1.031,18.494-7.75,18.344-20.139c-0.076-6.111-1.527-11.636-5.531-16.469
		c-1.973-2.383-4.039-4.126-7.207-4.333C1122.696,435.971,1119.87,435.704,1116.61,435.442z"/>
	<path fill-rule="evenodd" clip-rule="evenodd" fill="#FFFFFF" d="M569.572,552.702c10.219-0.792,20.343,1.259,30.201,3.949
		c5.056,1.379,9.884,4.516,14.131,7.756c11.784,8.986,16.183,21.761,17.665,36.035c0.835,8.032,0.223,15.816-1.836,23.532
		c-0.503,1.89-1.517,3.645-2.33,5.446c-0.146,0.325-0.535,0.856-0.69,0.815c-3.91-0.993-2.793,2.492-3.636,4.124
		c-3.542,6.846-6.505,14.058-12.716,19.131c-4.46,3.645-8.792,7.453-13.357,10.963c-8.169,6.277-17.513,9.771-27.647,11.47
		c-6.652,1.114-13.178,0.665-19.69-0.684c-12.239-2.534-22.599-8.616-31.51-17.216c-3.641-3.513-7.604-6.938-10.282-11.13
		c-2.556-3.998-4.49-8.823-5.14-13.501c-0.846-6.08-0.406-12.389-0.054-18.57c0.375-6.575,3.981-12.067,6.824-17.792
		c4.417-8.894,9.689-17.274,16.926-24.058c7.6-7.119,15.297-14.398,26.072-16.718c0.729-0.157,1.432-0.467,2.118-0.769
		C559.329,553.4,564.152,551.917,569.572,552.702z"/>
	<path fill-rule="evenodd" clip-rule="evenodd" fill="#FFFFFF" d="M580.26,353.243c1.805-2.358,3.703-4.039,4.572-6.145
		c1.589-3.851,4.866-5.746,8.209-6.68c5.765-1.61,11.7-2.544,17.886-1.657c4.419,0.633,7.999,2.647,10.896,5.458
		c5.702,5.529,10.375,11.973,13.233,19.48c2.442,6.416,2.863,13.17,2.766,19.992c-0.173,12.053-2.923,23.574-7.934,34.407
		c-4.979,10.765-13.792,17.541-24.998,21.312c-7.302,2.457-14.058,0.447-20.618-2.473c-3.998-1.78-8.272-3.55-11.462-6.398
		c-5.098-4.552-8.5-10.409-9.53-17.479c-0.973-6.692,0.127-13.176,1.512-19.613c2.245-10.424,5.599-20.509,10.389-30.068
		c1.052-2.101,2.445-4.031,3.52-6.123C579.424,355.847,579.863,354.293,580.26,353.243z"/>
	<path fill-rule="evenodd" clip-rule="evenodd" fill="#FFFFFF" d="M831.522,504.834c0.162,11.646-3.619,23.069-9.367,33.755
		c-3.933,7.312-9.161,13.965-16.567,18.137c-2.599,1.462-6.102,1.326-9.195,1.899c-0.494,0.091-1.149-0.114-1.488,0.142
		c-4.323,3.243-13.32,4.35-18.218,2.014c-6.588-3.144-13.224-6.215-19.628-9.701c-4.613-2.515-7.691-6.656-9.325-11.669
		c-2.649-8.129-3.936-16.487-3.803-25.059c0.178-11.461,3.604-22.023,8.788-32.092c3.303-6.413,7.359-12.354,13.214-16.668
		c2.899-2.138,6.253-3.978,9.684-5.006c6.489-1.946,13.157-3.72,20.042-2.838c5.853,0.75,11.568,1.941,17.301,3.755
		c9.59,3.037,12.395,10.636,14.604,18.715C829.688,487.999,832.124,495.824,831.522,504.834z"/>
	<path fill-rule="evenodd" clip-rule="evenodd" fill="#FFFFFF" d="M1116.61,435.442c3.26,0.262,6.086,0.528,8.914,0.71
		c3.168,0.207,5.234,1.95,7.207,4.333c4.004,4.833,5.455,10.357,5.531,16.469c0.15,12.389-6,19.107-18.344,20.139
		c-5.826,0.487-11.629,1.079-17.377-0.464c-1.33-0.356-2.779-0.78-3.824-1.611c-6.211-4.926-10.111-11.295-11.342-19.179
		c-0.166-1.078-0.166-2.35,0.244-3.325c2.701-6.409,6.344-12.062,13.338-14.489C1106.151,436.222,1111.417,434.654,1116.61,435.442z
		"/>
</g>
<text transform="matrix(1 0 0 1 761.2285 939.9229)" font-family="'Consolas'" font-size="106.7037">start</text>
<text transform="matrix(1 0 0 1 1028.9238 702.459)" font-family="'Consolas'" font-size="18">by john lok</text>
</svg>
