<?xml version="1.0" encoding="utf-8"?>
<!-- Generator: Adobe Illustrator 16.0.0, SVG Export Plug-In . SVG Version: 6.00 Build 0)  -->
<!DOCTYPE svg PUBLIC "-//W3C//DTD SVG 1.1//EN" "http://www.w3.org/Graphics/SVG/1.1/DTD/svg11.dtd">
<svg version="1.1" id="Layer_1" xmlns="http://www.w3.org/2000/svg" xmlns:xlink="http://www.w3.org/1999/xlink" x="0px" y="0px"
	 width="1037px" height="198px" viewBox="0 27 1037 198" enable-background="new 0 27 1037 198" xml:space="preserve">
<text transform="matrix(1 0 0 1 272.0098 164.21)" fill="#FF6161" font-family="'Consolas-Italic'" font-size="129.2782">loading</text>
<text transform="matrix(1 0 0 1 268.7842 164.21)" fill="#3EFFF1" font-family="'Consolas-Italic'" font-size="129.2782">loading</text>
<text transform="matrix(1 0 0 1 264.9453 164.21)" font-family="'Consolas-Italic'" font-size="129.2782">loading</text>
<text transform="matrix(1 0 0 1 272.0098 432.21)" fill="#FF6161" font-family="'Consolas-Italic'" font-size="129.2782">loading.</text>
<text transform="matrix(1 0 0 1 268.7842 432.21)" fill="#3EFFF1" font-family="'Consolas-Italic'" font-size="129.2782">loading.</text>
<text transform="matrix(1 0 0 1 264.9453 432.21)" font-family="'Consolas-Italic'" font-size="129.2782">loading.</text>
<text transform="matrix(1 0 0 1 272.0098 710.21)" fill="#FF6161" font-family="'Consolas-Italic'" font-size="129.2782">loading..</text>
<text transform="matrix(1 0 0 1 268.7842 710.21)" fill="#3EFFF1" font-family="'Consolas-Italic'" font-size="129.2782">loading..</text>
<text transform="matrix(1 0 0 1 264.9453 710.21)" font-family="'Consolas-Italic'" font-size="129.2782">loading..</text>
<text transform="matrix(1 0 0 1 272.0098 970.21)" fill="#FF6161" font-family="'Consolas-Italic'" font-size="129.2782">loading...</text>
<text transform="matrix(1 0 0 1 268.7842 970.21)" fill="#3EFFF1" font-family="'Consolas-Italic'" font-size="129.2782">loading...</text>
<text transform="matrix(1 0 0 1 264.9453 970.21)" font-family="'Consolas-Italic'" font-size="129.2782">loading...</text>
</svg>
